<svg width="430" height="472" viewBox="0 0 430 472" fill="none" xmlns="http://www.w3.org/2000/svg">
<g clip-path="url(#clip0_1633_28384)">
<path d="M325.868 70.5416C325.868 88.2254 311.214 102.554 293.129 102.554C275.045 102.554 260.391 88.2254 260.391 70.5416C260.391 52.8578 275.045 38.5293 293.129 38.5293C311.214 38.5293 325.868 52.8578 325.868 70.5416Z" fill="#E69E31"/>
<path d="M319.762 70.5416C319.762 88.2254 305.108 102.554 287.023 102.554C268.939 102.554 254.285 88.2254 254.285 70.5416C254.285 52.8578 268.939 38.5293 287.023 38.5293C305.108 38.5293 319.762 52.8578 319.762 70.5416Z" fill="#FFA900"/>
<path d="M314.328 70.5418C314.328 85.2882 302.105 97.2525 287.012 97.2525C271.919 97.2525 259.695 85.3002 259.695 70.5418C259.695 55.7834 271.919 43.8311 287.012 43.8311C302.105 43.8311 314.328 55.7834 314.328 70.5418Z" fill="#FFC157"/>
<path d="M310.554 70.5414C310.554 83.258 300.016 93.5506 287.023 93.5506C274.03 93.5506 263.492 83.246 263.492 70.5414C263.492 57.8368 274.03 47.5322 287.023 47.5322C300.016 47.5322 310.554 57.8368 310.554 70.5414Z" fill="#E69E31"/>
<path d="M283.388 80.9297L277.628 70.8817V68.5137H279.548C280.316 68.5137 280.988 68.407 281.564 68.1937C282.161 67.959 282.652 67.6284 283.036 67.2017C283.441 66.775 283.719 66.263 283.868 65.6657H277.628V63.2977H283.836C283.708 62.743 283.484 62.2524 283.164 61.8257C282.865 61.399 282.46 61.0684 281.948 60.8337C281.457 60.5777 280.86 60.4497 280.156 60.4497H277.628V58.0817H292.06V60.4497H287.036C287.399 60.855 287.697 61.2924 287.932 61.7617C288.188 62.231 288.359 62.743 288.444 63.2977H292.06V65.6657H288.508C288.295 67.2444 287.687 68.4817 286.684 69.3777C285.681 70.2524 284.391 70.8497 282.812 71.1697L289.084 80.9297H283.388Z" fill="white"/>
<path d="M172.151 81.1448C172.151 100.906 155.764 116.93 135.554 116.93C115.345 116.93 98.9575 100.906 98.9575 81.1448C98.9575 61.3834 115.345 45.3594 135.554 45.3594C155.764 45.3594 172.151 61.3834 172.151 81.1448Z" fill="#E69E31"/>
<path d="M165.325 81.1448C165.325 100.906 148.938 116.93 128.728 116.93C108.519 116.93 92.1313 100.906 92.1313 81.1448C92.1313 61.3834 108.519 45.3594 128.728 45.3594C148.938 45.3594 165.325 61.3834 165.325 81.1448Z" fill="#FFA900"/>
<path d="M159.268 81.145C159.268 97.6348 145.604 110.996 128.74 110.996C111.877 110.996 98.2124 97.6348 98.2124 81.145C98.2124 64.6553 111.877 51.2939 128.74 51.2939C145.604 51.2939 159.268 64.6553 159.268 81.145Z" fill="#FFC157"/>
<path d="M155.044 81.1445C155.044 95.3536 143.261 106.876 128.741 106.876C114.222 106.876 102.426 95.3536 102.426 81.1445C102.426 66.9354 114.21 55.4248 128.741 55.4248C143.273 55.4248 155.044 66.9473 155.044 81.1445Z" fill="#E69E31"/>
<path d="M126.465 91.4707L120.705 81.4227V79.0547H122.625C123.393 79.0547 124.065 78.948 124.641 78.7347C125.239 78.5 125.729 78.1694 126.113 77.7427C126.519 77.316 126.796 76.804 126.945 76.2067H120.705V73.8387H126.913C126.785 73.284 126.561 72.7934 126.241 72.3667C125.943 71.94 125.537 71.6094 125.025 71.3747C124.535 71.1187 123.937 70.9907 123.233 70.9907H120.705V68.6227H135.137V70.9907H130.113C130.476 71.396 130.775 71.8334 131.009 72.3027C131.265 72.772 131.436 73.284 131.521 73.8387H135.137V76.2067H131.585C131.372 77.7854 130.764 79.0227 129.761 79.9187C128.759 80.7934 127.468 81.3907 125.889 81.7107L132.161 91.4707H126.465Z" fill="white"/>
<path d="M323.337 231.833C323.337 254.257 304.751 272.43 281.819 272.43C258.886 272.43 240.301 254.257 240.301 231.833C240.301 209.409 258.886 191.235 281.819 191.235C304.751 191.235 323.337 209.409 323.337 231.833Z" fill="#E69E31"/>
<path d="M315.595 231.833C315.595 254.257 297.01 272.43 274.077 272.43C251.145 272.43 232.559 254.257 232.559 231.833C232.559 209.409 251.145 191.235 274.077 191.235C297.01 191.235 315.595 209.409 315.595 231.833Z" fill="#FFA900"/>
<path d="M308.708 231.833C308.708 250.531 293.199 265.696 274.077 265.696C254.954 265.696 239.446 250.531 239.446 231.833C239.446 213.134 254.954 197.97 274.077 197.97C293.199 197.97 308.708 213.134 308.708 231.833Z" fill="#FFC157"/>
<path d="M303.921 231.833C303.921 247.952 290.562 261.015 274.077 261.015C257.592 261.015 244.233 247.952 244.233 231.833C244.233 215.713 257.592 202.65 274.077 202.65C290.562 202.65 303.921 215.713 303.921 231.833Z" fill="#E69E31"/>
<path d="M273.796 245.361C271.635 245.361 269.535 245.098 267.483 244.585C265.468 244.024 263.832 243.355 262.574 242.507L265.041 237.074C266.225 237.814 267.63 238.447 269.18 238.901C270.744 239.379 272.258 239.641 273.821 239.641C274.846 239.641 275.689 239.534 276.324 239.343C276.971 239.152 277.423 238.937 277.692 238.603C277.997 238.304 278.143 237.934 278.143 237.528C278.143 236.931 277.875 236.453 277.313 236.119C276.739 235.785 276.019 235.486 275.152 235.259C274.273 235.032 273.283 234.817 272.184 234.591C271.122 234.364 270.06 234.065 268.948 233.731C267.886 233.397 266.897 232.955 266.018 232.394C265.139 231.832 264.418 231.092 263.856 230.197C263.282 229.265 263.026 228.119 263.026 226.734C263.026 225.17 263.478 223.761 264.357 222.495C265.236 221.229 266.518 220.226 268.277 219.45C270.023 218.674 272.197 218.292 274.822 218.292C276.568 218.292 278.278 218.483 279.987 218.889C281.66 219.259 283.138 219.82 284.469 220.561L282.149 226.029C280.891 225.361 279.645 224.871 278.388 224.537C277.13 224.202 275.958 224.011 274.773 224.011C273.747 224.011 272.905 224.119 272.27 224.346C271.623 224.537 271.171 224.823 270.902 225.158C270.634 225.492 270.487 225.898 270.487 226.352C270.487 226.913 270.756 227.355 271.281 227.689C271.855 228.023 272.575 228.322 273.442 228.513C274.358 228.74 275.347 228.955 276.41 229.182C277.509 229.408 278.571 229.659 279.645 230.005C280.744 230.34 281.734 230.782 282.613 231.343C283.492 231.904 284.212 232.644 284.738 233.54C285.311 234.471 285.568 235.582 285.568 236.955C285.568 238.483 285.116 239.856 284.237 241.122C283.407 242.424 282.075 243.427 280.317 244.203C278.608 244.979 276.397 245.361 273.772 245.361H273.796ZM272.197 249.301V243.988H276.764V249.301H272.197ZM272.197 219.629V214.352H276.764V219.629H272.197Z" fill="white"/>
<path d="M246.213 137.325C246.213 148.585 236.871 157.719 225.356 157.719C213.841 157.719 204.5 148.585 204.5 137.325C204.5 126.065 213.841 116.931 225.356 116.931C236.871 116.931 246.213 126.065 246.213 137.325Z" fill="#E69E31"/>
<path d="M242.318 137.325C242.318 148.585 232.976 157.719 221.461 157.719C209.946 157.719 200.604 148.585 200.604 137.325C200.604 126.065 209.946 116.931 221.461 116.931C232.976 116.931 242.318 126.065 242.318 137.325Z" fill="#FFA900"/>
<path d="M238.862 137.325C238.862 146.722 231.072 154.34 221.461 154.34C211.851 154.34 204.061 146.722 204.061 137.325C204.061 127.928 211.851 120.31 221.461 120.31C231.072 120.31 238.862 127.928 238.862 137.325Z" fill="#FFC157"/>
<path d="M236.457 137.325C236.457 145.421 229.741 151.988 221.462 151.988C213.182 151.988 206.466 145.421 206.466 137.325C206.466 129.229 213.182 122.662 221.462 122.662C229.741 122.662 236.457 129.229 236.457 137.325Z" fill="#E69E31"/>
<path d="M219.355 143.689L215.755 137.409V135.929H216.955C217.435 135.929 217.855 135.863 218.215 135.729C218.588 135.583 218.895 135.376 219.135 135.109C219.388 134.843 219.562 134.523 219.655 134.149H215.755V132.669H219.635C219.555 132.323 219.415 132.016 219.215 131.749C219.028 131.483 218.775 131.276 218.455 131.129C218.148 130.969 217.775 130.889 217.335 130.889H215.755V129.409H224.775V130.889H221.635C221.862 131.143 222.048 131.416 222.195 131.709C222.355 132.003 222.462 132.323 222.515 132.669H224.775V134.149H222.555C222.422 135.136 222.042 135.909 221.415 136.469C220.788 137.016 219.982 137.389 218.995 137.589L222.915 143.689H219.355Z" fill="white"/>
<path d="M172.726 470.984V325.146H368.278V470.984" stroke="#5D8DE9" stroke-width="0.839817" stroke-miterlimit="10"/>
<path d="M375.204 330.024H165.802C161.074 330.024 157.234 327.432 157.234 324.24V302.204C157.234 299.012 161.074 296.42 165.802 296.42H375.204C379.932 296.42 383.771 299.012 383.771 302.204V324.24C383.771 327.432 379.932 330.024 375.204 330.024Z" fill="white" stroke="#5D8DE9" stroke-width="0.839817" stroke-miterlimit="10"/>
<path d="M375.707 326.063H165.299C160.571 326.063 156.731 323.471 156.731 320.28V298.243C156.731 295.051 160.571 292.459 165.299 292.459H375.707C380.435 292.459 384.275 295.051 384.275 298.243V320.28C384.275 323.471 380.435 326.063 375.707 326.063Z" fill="#5D8DE9"/>
<mask id="mask0_1633_28384" style="mask-type:luminance" maskUnits="userSpaceOnUse" x="334" y="348" width="92" height="124">
<path d="M425.169 348.853H334.125V471.475H425.169V348.853Z" fill="white"/>
</mask>
<g mask="url(#mask0_1633_28384)">
<path fill-rule="evenodd" clip-rule="evenodd" d="M360.909 380.741C369.417 380.741 377.703 380.751 383.646 380.761C389.263 380.761 394.449 383.69 397.258 388.448C410.476 410.964 416.657 433.48 416.813 455.996C416.834 460.095 415.186 464.032 412.232 466.935C409.279 469.838 405.258 471.475 401.071 471.475H320.747C316.555 471.475 312.54 469.843 309.586 466.935C306.633 464.032 304.985 460.095 305.006 456.001C305.161 433.485 311.337 410.969 324.561 388.453C327.369 383.7 332.556 380.767 338.173 380.767C344.116 380.756 352.401 380.746 360.914 380.746L360.909 380.741Z" fill="#FDCDC1"/>
<path d="M389.014 426.108C389.014 441.288 376.433 453.59 360.914 453.59C345.396 453.59 332.81 441.288 332.81 426.108C332.81 410.929 345.39 398.632 360.914 398.632C376.438 398.632 389.014 410.934 389.014 426.108Z" fill="#FDA291"/>
<path d="M357.634 435.142L351.452 424.357L351.452 421.816L353.512 421.816C354.337 421.816 355.058 421.701 355.676 421.472C356.317 421.22 356.844 420.866 357.256 420.408C357.691 419.95 357.989 419.4 358.149 418.759L351.452 418.759L351.452 416.218L358.115 416.218C357.977 415.622 357.737 415.096 357.393 414.638C357.073 414.18 356.638 413.825 356.088 413.573C355.562 413.298 354.92 413.161 354.165 413.161L351.452 413.161L351.452 410.619L366.941 410.619L366.941 413.161L361.549 413.161C361.938 413.596 362.259 414.065 362.511 414.569C362.785 415.073 362.969 415.622 363.06 416.218L366.941 416.218L366.941 418.759L363.129 418.759C362.9 420.453 362.247 421.781 361.171 422.743C360.095 423.682 358.71 424.323 357.016 424.666L363.747 435.142L357.634 435.142Z" fill="#A0505A"/>
<path fill-rule="evenodd" clip-rule="evenodd" d="M346.935 380.737H374.894L384.459 356.716H337.364L346.929 380.737H346.935Z" fill="#FDCDC1"/>
<path fill-rule="evenodd" clip-rule="evenodd" d="M382.122 377.063C382.122 375.031 380.438 373.385 378.36 373.385H343.442C341.364 373.385 339.68 375.031 339.68 377.063C339.68 379.095 341.364 380.742 343.442 380.742H378.36C380.438 380.742 382.122 379.095 382.122 377.063Z" fill="#FDA291"/>
</g>
<path d="M152.391 371.311C154.386 375.902 153.799 385.344 143.756 385.213C131.298 385.049 131.616 352.229 131.616 352.229C131.616 352.229 144.343 352.803 152.391 371.311Z" fill="#235CD8"/>
<path d="M36.3637 360.213C33.2451 366.672 37.4368 371.869 40.9578 370.082C47.1113 366.951 49.7605 358.902 49.7605 358.902C49.7605 358.902 39.1638 354.442 36.3637 360.213Z" fill="#235CD8"/>
<path d="M152.223 371.312C145.549 358.246 138.021 352.033 125.966 352.033C105.661 352.033 92.6331 373.279 90.1516 400.754C89.8498 397.344 86.2449 393.853 85.9766 390.312C82.355 343.262 108.729 324.705 128.514 324.705C144.711 324.689 148.752 347.443 152.223 371.312Z" fill="white" stroke="#235CD8" stroke-width="0.839817" stroke-miterlimit="10"/>
<path d="M85.9934 401.41C82.3718 354.361 109.97 335.804 128.196 335.804C138.306 335.804 144.644 341.64 149.523 354.918" stroke="#235CD8" stroke-width="0.839817" stroke-miterlimit="10"/>
<path d="M10.0226 304.852C4.60693 310.098 -5.18494 331.607 6.93753 335.869C19.06 340.148 33.2616 298.033 33.2616 298.033C33.2616 298.033 22.9835 292.279 10.0226 304.852Z" fill="#FFE180" stroke="#FFE180" stroke-width="0.839817" stroke-miterlimit="10"/>
<path d="M109.97 402.574L105.644 425.509C103.465 437.017 93.2032 445.378 81.2316 445.378C69.2601 445.378 58.9987 437.017 56.819 425.509L52.4932 402.574C52.4932 401.427 52.7614 400.328 53.2309 399.345C56.7017 402.755 67.9858 405.246 81.349 405.246C94.7122 405.246 105.661 402.82 109.316 399.509C109.735 400.443 109.97 401.492 109.97 402.574Z" fill="#D0EFE9"/>
<path d="M107.136 397.132C107.136 400.378 95.584 403.001 81.3321 403.001C67.0802 403.001 55.5278 400.378 55.5278 397.132C55.5278 396.869 55.5949 396.624 55.7458 396.378C57.389 393.492 68.2204 391.279 81.3321 391.279C94.4438 391.279 105.929 393.64 107.036 396.64C107.103 396.804 107.136 396.968 107.136 397.132Z" fill="#5D8DE9"/>
<path d="M90.5878 362.918C90.5878 376.492 88.6763 389.311 85.2727 400.59H75.4808C75.4472 343.59 54.1868 297.41 27.9802 297.41C21.1728 297.41 14.7008 300.525 8.84912 306.131C26.0855 286.41 33.245 281 43.0871 281C66.5943 281 90.5878 317.672 90.5878 362.918Z" fill="white" stroke="#FFE180" stroke-width="0.839817" stroke-miterlimit="10"/>
<path d="M19.8145 294.115C25.4146 290.132 29.0195 288.279 35.4412 288.279C61.6646 288.279 88.2066 331.066 81.2148 400.574" stroke="#FFE180" stroke-width="0.839817" stroke-miterlimit="10"/>
<path d="M81.2823 400.574C81.2823 400.574 82.7242 347.05 52.8959 346.869C44.9987 346.82 37.6045 359.066 37.6045 359.066C37.6045 359.066 72.5299 350.148 74.2569 400.574H81.2823Z" fill="white" stroke="#235CD8" stroke-width="0.839817" stroke-miterlimit="10"/>
<path d="M77.6269 400.738C78.0461 385.656 74.1562 349.262 44.0093 351.213" stroke="#235CD8" stroke-width="0.839817" stroke-miterlimit="10"/>
<path d="M37.4702 308.296C38.9981 308.296 40.2367 307.085 40.2367 305.591C40.2367 304.097 38.9981 302.886 37.4702 302.886C35.9422 302.886 34.7036 304.097 34.7036 305.591C34.7036 307.085 35.9422 308.296 37.4702 308.296Z" fill="white" stroke="#FFE180" stroke-width="0.839817" stroke-miterlimit="10"/>
<path d="M102.677 385.656C104.908 385.656 106.717 383.887 106.717 381.705C106.717 379.523 104.908 377.754 102.677 377.754C100.445 377.754 98.6357 379.523 98.6357 381.705C98.6357 383.887 100.445 385.656 102.677 385.656Z" fill="white" stroke="#FFE180" stroke-width="0.839817" stroke-miterlimit="10"/>
<path d="M95.9698 309.442C100.183 309.442 103.599 306.103 103.599 301.983C103.599 297.864 100.183 294.524 95.9698 294.524C91.7564 294.524 88.3408 297.864 88.3408 301.983C88.3408 306.103 91.7564 309.442 95.9698 309.442Z" fill="#D0EFE9"/>
<path d="M116.006 471.36L109.249 438.459C108.679 435.655 104.856 435 103.347 437.459C94.0247 452.623 68.7067 452.721 59.2334 437.606L59.0657 437.328C57.54 434.901 53.7506 435.557 53.1806 438.344L46.4067 471.344" stroke="#5D8DE9" stroke-width="0.839817" stroke-miterlimit="10"/>
<path d="M81.2148 448.901V471.508" stroke="#5D8DE9" stroke-width="0.839817" stroke-miterlimit="10"/>
<path d="M31.0654 471.36H255.809" stroke="#5D8DE9" stroke-width="0.839817" stroke-miterlimit="10"/>
<path d="M243.064 150.592H308.757C322.036 150.592 334.444 156.985 341.955 167.674L372.052 211.018C374.533 214.543 372.287 219.346 367.91 219.346H334.41L321.03 202.248C319.454 200.084 315.967 201.034 315.749 203.69L313.049 235.887H241.404L235.368 203.149C234.999 200.592 231.612 199.805 230.086 201.92L217.796 217.395H177.74L208.994 168.969C216.388 157.526 229.248 150.592 243.064 150.592Z" fill="white" stroke="#235CD8" stroke-width="0.839817" stroke-miterlimit="10" stroke-linecap="round"/>
<path d="M283.087 167.312L293.734 201.886H267.426L279.113 167.312H283.087Z" fill="#F9A793"/>
<g opacity="0.2">
<path d="M274.603 180.673V201.886H273.898V182.755L274.133 182.05L274.603 180.673Z" fill="white"/>
<path d="M282.098 167.395H281.394V201.886H282.098V167.395Z" fill="white"/>
<path d="M289.592 188.427V201.886H288.888V186.132L289.592 188.427Z" fill="white"/>
<path d="M292.359 197.411H268.936L269.17 196.706H292.141L292.359 197.411Z" fill="white"/>
<path d="M290.095 190.083H271.417L271.652 189.378H289.877L290.095 190.083Z" fill="white"/>
<path d="M287.848 182.755H273.898L274.133 182.05H287.631L287.848 182.755Z" fill="white"/>
<path d="M285.585 175.428H276.38L276.615 174.723H285.367L285.585 175.428Z" fill="white"/>
<path d="M283.322 168.099H278.862L279.097 167.395H283.121L283.322 168.099Z" fill="white"/>
</g>
<path d="M287.849 166.952L292.141 171.461L305.974 150.592H293.717L287.849 166.952Z" fill="white" stroke="#235CD8" stroke-width="0.839817" stroke-miterlimit="10" stroke-linecap="round"/>
<path d="M275.122 166.952L270.813 171.461L255.824 150.592H269.237L275.122 166.952Z" fill="white" stroke="#235CD8" stroke-width="0.839817" stroke-miterlimit="10" stroke-linecap="round"/>
<path d="M377.317 223.314C377.317 231.478 371.364 239.216 362.109 240.543L324.166 246.002L315.833 247.199V215.658L318.398 215.068L355.419 206.478C362.562 204.822 370.006 207.625 374.165 213.543C376.327 216.593 377.317 219.986 377.317 223.314Z" fill="#A0505A"/>
<path d="M324.166 246.003L315.833 247.2V215.659L318.398 215.068L324.166 246.003Z" fill="#73325A"/>
<path d="M315.832 255.265H236.072V208.461C236.072 204.822 239.09 201.888 242.796 201.888H309.092C312.814 201.888 315.816 204.839 315.816 208.461V255.265H315.832Z" fill="#FFE180"/>
<path d="M280.874 232.314H271.032C270.026 232.314 269.221 231.527 269.221 230.544V226.511C269.221 225.527 270.026 224.74 271.032 224.74H280.874C281.88 224.74 282.685 225.527 282.685 226.511V230.544C282.685 231.527 281.863 232.314 280.874 232.314Z" stroke="white" stroke-width="0.699847" stroke-miterlimit="10"/>
<path d="M264.09 254.757L348.528 242.412C364.96 239.97 379.765 252.413 379.765 268.675C379.765 283.347 367.609 295.232 352.602 295.232H264.643L264.09 254.757Z" fill="#235CD8"/>
<path d="M252.671 302.462L201.851 312.052C195.379 313.397 188.873 308.118 188.588 301.298L187.834 283.167C187.448 273.987 196.452 268.462 204.936 272.397L252.671 302.462Z" fill="white" stroke="#F9A793" stroke-width="0.839817" stroke-miterlimit="10"/>
<path d="M205.288 311.397C199.034 312.675 192.713 307.544 192.411 300.905L191.623 283.298C191.221 274.38 199.906 269.069 208.122 272.905" stroke="#F9A793" stroke-width="0.839817" stroke-miterlimit="10"/>
<path d="M204.937 272.381L252.672 302.463L241.79 304.512L204.937 272.381Z" fill="#F9A793"/>
<path d="M223.33 285.561L217.042 297.807L210.821 283.413L203.628 299.577" stroke="#F9A793" stroke-width="0.839817" stroke-linejoin="round"/>
<path d="M203.276 281.167L210.318 298.347L217.21 284.626L222.558 296.069" stroke="#F9A793" stroke-width="0.839817" stroke-linejoin="round"/>
<path d="M292.141 279.986C289.324 277.724 281.175 282.871 273.932 291.478C266.688 300.084 263.1 308.904 265.917 311.166C265.498 310.92 212.565 278.461 179.719 256.314C171.369 250.691 166.959 241.674 166.959 232.543C166.959 226.183 169.105 219.773 173.548 214.412C184.682 200.986 205.305 200.084 217.629 212.478L292.141 279.986Z" fill="#235CD8"/>
<path d="M284.117 299.698C291.358 291.09 294.944 282.275 292.127 280.009C289.309 277.743 281.154 282.884 273.913 291.491C266.671 300.099 263.085 308.913 265.903 311.179C268.72 313.446 276.875 308.305 284.117 299.698Z" fill="#F9A793" stroke="white" stroke-width="0.839817" stroke-miterlimit="10"/>
<path d="M315.447 308.313L306.024 323.953C301.245 331.871 290.447 332.018 285.501 324.215L269.64 299.232C270.998 297.035 272.674 294.74 274.603 292.445C278.09 288.297 281.796 284.953 285.015 282.854L310.266 292.248C316.436 294.559 318.985 302.428 315.447 308.313Z" fill="white" stroke="#F9A793" stroke-width="0.839817" stroke-miterlimit="10"/>
<path d="M307.6 291.231C313.435 293.445 315.497 300.838 312.16 306.494L303.274 321.494C298.78 329.1 288.603 329.231 283.925 321.756" stroke="#F9A793" stroke-width="0.839817" stroke-miterlimit="10"/>
<path d="M276.615 299.248L289.458 292.888L285.602 308.019L300.96 298.806" stroke="#F9A793" stroke-width="0.839817" stroke-linejoin="round"/>
<path d="M290.481 314.084L294.471 296.461L281.376 302.772L283.388 291.067" stroke="#F9A793" stroke-width="0.839817" stroke-linejoin="round"/>
<path d="M300.491 153.428C300.424 154.477 299.954 155.411 299.216 156.084C298.479 156.756 297.506 157.166 296.433 157.166H292.728L292.493 160.985C292.292 164.133 289.089 167.346 285.753 167.346H276.38C273.06 167.346 269.841 164.133 269.64 160.985L269.405 157.166H265.649C264.576 157.166 263.587 156.756 262.866 156.084C262.128 155.411 261.659 154.477 261.592 153.412C261.457 151.116 263.386 149.215 265.733 149.215H268.902L268.55 143.395C268.483 142.166 269.472 141.133 270.73 141.133H291.42C292.677 141.133 293.667 142.166 293.6 143.395L293.247 149.215H296.45C298.764 149.231 300.625 151.149 300.491 153.428Z" fill="#A0505A"/>
<path d="M293.231 149.215H296.601C296.601 149.215 299.82 137.789 296.718 134.854C293.616 131.92 274.569 125.166 268.416 129.379C263.922 132.461 266.37 149.215 266.37 149.215H268.852C268.852 149.215 278.861 142.199 280.438 142.805C282.014 143.412 275.911 146.363 277.135 146.936C281.712 149.084 289.944 141.297 291.839 141.297C293.734 141.297 293.231 149.215 293.231 149.215Z" fill="#73325A"/>
<path d="M288.989 152.052C288.989 152.052 286.792 150.314 283.976 151.445" stroke="#73325A" stroke-width="0.559878" stroke-miterlimit="10" stroke-linecap="round"/>
<path d="M284.495 161.396C284.495 161.396 283.288 163.92 279.633 162.609" stroke="#73325A" stroke-width="0.559878" stroke-miterlimit="10" stroke-linecap="round"/>
<path d="M272.289 151.478C272.289 151.478 276.732 150.511 278.074 153.199C278.895 154.855 278.493 160.642 279.449 160.707C280.404 160.773 281.846 160.707 281.846 160.707" stroke="#73325A" stroke-width="0.559878" stroke-miterlimit="10" stroke-linecap="round"/>
<path d="M285.987 156.51C286.422 156.51 286.775 155.938 286.775 155.232C286.775 154.526 286.422 153.953 285.987 153.953C285.552 153.953 285.199 154.526 285.199 155.232C285.199 155.938 285.552 156.51 285.987 156.51Z" fill="#73325A"/>
<path d="M275.793 156.51C276.229 156.51 276.581 155.938 276.581 155.232C276.581 154.526 276.229 153.953 275.793 153.953C275.358 153.953 275.005 154.526 275.005 155.232C275.005 155.938 275.358 156.51 275.793 156.51Z" fill="#73325A"/>
<path d="M268.08 154.018C267.98 152.412 266.622 151.166 264.979 151.166" stroke="#73325A" stroke-width="0.559878" stroke-miterlimit="10" stroke-linecap="round"/>
<path d="M293.817 154.101C293.918 152.396 295.36 151.068 297.087 151.068" stroke="#73325A" stroke-width="0.559878" stroke-miterlimit="10" stroke-linecap="round"/>
<path d="M273.972 363.396H308.231C325.114 363.396 338.796 376.775 338.796 393.284V462.947C338.796 469.654 333.231 475.095 326.372 475.095H255.84C248.981 475.095 243.416 469.654 243.416 462.947V393.284C243.416 376.775 257.098 363.396 273.981 363.396" fill="#7FC7C9"/>
<path d="M273.972 370.473C261.089 370.473 250.644 380.687 250.644 393.283V462.947C250.644 465.751 252.972 468.027 255.84 468.027H326.372C329.24 468.027 331.568 465.751 331.568 462.947V393.283C331.568 380.687 321.122 370.473 308.24 370.473H273.981H273.972Z" fill="#D0EFE9"/>
<path d="M317.086 352.295H265.072C263.841 352.295 262.843 353.121 262.843 354.141V363.037C262.843 364.056 263.841 364.883 265.072 364.883H317.086C318.318 364.883 319.307 364.056 319.307 363.037V354.141C319.307 353.121 318.309 352.295 317.086 352.295Z" fill="#D0EFE9"/>
<path d="M304.096 355.626H278.089C277.478 355.626 276.974 355.837 276.974 356.101V358.413C276.974 358.676 277.469 358.887 278.089 358.887H304.096C304.707 358.887 305.21 358.676 305.21 358.413V356.101C305.21 355.837 304.716 355.626 304.096 355.626Z" fill="#235CD8"/>
<path d="M312.717 459.826H271.194V468.063H312.717V459.826Z" fill="#FFA900"/>
<path d="M308.546 459.826H307.036V468.063H308.546V459.826Z" fill="#FFC157"/>
<path d="M303.26 459.826H301.75V468.063H303.26V459.826Z" fill="#FFC157"/>
<path d="M297.975 459.826H296.465V468.063H297.975V459.826Z" fill="#FFC157"/>
<path d="M292.689 459.826H291.179V468.063H292.689V459.826Z" fill="#FFC157"/>
<path d="M287.412 459.826H285.901V468.063H287.412V459.826Z" fill="#FFC157"/>
<path d="M282.126 459.826H280.616V468.063H282.126V459.826Z" fill="#FFC157"/>
<path d="M276.84 459.826H275.33V468.063H276.84V459.826Z" fill="#FFC157"/>
<path d="M310.74 451.581H269.217V459.818H310.74V451.581Z" fill="#E69E31"/>
<path d="M306.56 451.581H305.049V459.818H306.56V451.581Z" fill="#FFA900"/>
<path d="M301.283 451.581H299.773V459.818H301.283V451.581Z" fill="#FFA900"/>
<path d="M295.997 451.581H294.487V459.818H295.997V451.581Z" fill="#FFA900"/>
<path d="M290.711 451.581H289.201V459.818H290.711V451.581Z" fill="#FFA900"/>
<path d="M285.425 451.581H283.915V459.818H285.425V451.581Z" fill="#FFA900"/>
<path d="M280.148 451.581H278.638V459.818H280.148V451.581Z" fill="#FFA900"/>
<path d="M274.862 451.581H273.352V459.818H274.862V451.581Z" fill="#FFA900"/>
<path d="M313.707 443.345H272.184V451.581H313.707V443.345Z" fill="#FFA900"/>
<path d="M309.536 443.345H308.025V451.581H309.536V443.345Z" fill="#FFC157"/>
<path d="M304.25 443.345H302.739V451.581H304.25V443.345Z" fill="#FFC157"/>
<path d="M298.963 443.345H297.453V451.581H298.963V443.345Z" fill="#FFC157"/>
<path d="M293.687 443.345H292.177V451.581H293.687V443.345Z" fill="#FFC157"/>
<path d="M288.401 443.345H286.891V451.581H288.401V443.345Z" fill="#FFC157"/>
<path d="M283.115 443.345H281.604V451.581H283.115V443.345Z" fill="#FFC157"/>
<path d="M277.829 443.345H276.319V451.581H277.829V443.345Z" fill="#FFC157"/>
<path d="M311.729 435.107H270.206V443.344H311.729V435.107Z" fill="#E69E31"/>
<path d="M307.548 435.107H306.038V443.344H307.548V435.107Z" fill="#FFA900"/>
<path d="M302.271 435.107H300.761V443.344H302.271V435.107Z" fill="#FFA900"/>
<path d="M296.986 435.107H295.476V443.344H296.986V435.107Z" fill="#FFA900"/>
<path d="M291.7 435.107H290.189V443.344H291.7V435.107Z" fill="#FFA900"/>
<path d="M286.415 435.107H284.904V443.344H286.415V435.107Z" fill="#FFA900"/>
<path d="M281.137 435.107H279.627V443.344H281.137V435.107Z" fill="#FFA900"/>
<path d="M275.851 435.107H274.341V443.344H275.851V435.107Z" fill="#FFA900"/>
<path d="M310.938 426.871H269.415V435.108H310.938V426.871Z" fill="#FFA900"/>
<path d="M306.793 426.871H305.283V435.108H306.793V426.871Z" fill="#FFC157"/>
<path d="M301.516 426.871H300.006V435.108H301.516V426.871Z" fill="#FFC157"/>
<path d="M296.231 426.871H294.721V435.108H296.231V426.871Z" fill="#FFC157"/>
<path d="M290.945 426.871H289.435V435.108H290.945V426.871Z" fill="#FFC157"/>
<path d="M285.659 426.871H284.149V435.108H285.659V426.871Z" fill="#FFC157"/>
<path d="M280.382 426.871H278.872V435.108H280.382V426.871Z" fill="#FFC157"/>
<path d="M275.096 426.871H273.586V435.108H275.096V426.871Z" fill="#FFC157"/>
<path d="M308.96 418.635H267.437V426.871H308.96V418.635Z" fill="#E69E31"/>
<path d="M304.816 418.635H303.306V426.871H304.816V418.635Z" fill="#FFA900"/>
<path d="M299.53 418.635H298.02V426.871H299.53V418.635Z" fill="#FFA900"/>
<path d="M294.253 418.635H292.743V426.871H294.253V418.635Z" fill="#FFA900"/>
<path d="M288.967 418.635H287.457V426.871H288.967V418.635Z" fill="#FFA900"/>
<path d="M283.681 418.635H282.171V426.871H283.681V418.635Z" fill="#FFA900"/>
<path d="M278.395 418.635H276.885V426.871H278.395V418.635Z" fill="#FFA900"/>
<path d="M273.119 418.635H271.608V426.871H273.119V418.635Z" fill="#FFA900"/>
<path d="M308.619 399.682C308.619 410.486 299.666 419.25 288.617 419.25C277.569 419.25 268.606 410.495 268.606 399.682C268.606 388.87 277.56 380.124 288.617 380.124C299.675 380.124 308.619 388.879 308.619 399.682Z" fill="#FF7F22"/>
<mask id="mask1_1633_28384" style="mask-type:luminance" maskUnits="userSpaceOnUse" x="268" y="380" width="41" height="40">
<path d="M308.62 399.681C308.62 410.485 299.667 419.249 288.618 419.249C277.57 419.249 268.607 410.494 268.607 399.681C268.607 388.869 277.561 380.123 288.618 380.123C299.676 380.123 308.62 388.878 308.62 399.681Z" fill="white"/>
</mask>
<g mask="url(#mask1_1633_28384)">
<path d="M318.714 380.123H288.617V382.945H318.714V380.123Z" fill="#FFA900"/>
<path d="M318.714 385.758H288.617V388.579H318.714V385.758Z" fill="#FFA900"/>
<path d="M318.714 391.393H288.617V394.214H318.714V391.393Z" fill="#FFA900"/>
<path d="M318.714 397.026H288.617V399.848H318.714V397.026Z" fill="#FFA900"/>
<path d="M318.714 402.661H288.617V405.483H318.714V402.661Z" fill="#FFA900"/>
<path d="M318.714 408.305H288.617V411.126H318.714V408.305Z" fill="#FFA900"/>
<path d="M318.714 413.939H288.617V416.761H318.714V413.939Z" fill="#FFA900"/>
</g>
<path d="M306.191 399.682C306.191 410.486 297.237 419.25 286.189 419.25C275.141 419.25 266.178 410.495 266.178 399.682C266.178 388.87 275.132 380.124 286.189 380.124C297.246 380.124 306.191 388.879 306.191 399.682Z" fill="#FFC157"/>
<path d="M300.563 399.683C300.563 407.453 294.127 413.747 286.18 413.747C278.233 413.747 271.796 407.453 271.796 399.683C271.796 391.912 278.233 385.618 286.18 385.618C294.127 385.618 300.563 391.912 300.563 399.683Z" fill="#FFA900"/>
<path d="M286.18 385.618C294.127 385.618 300.564 391.912 300.564 399.683C300.564 404.262 298.325 408.332 294.855 410.899" stroke="#E69E31" stroke-width="0.0699847" stroke-linejoin="round"/>
<path d="M286.18 380.124C297.228 380.124 306.182 388.879 306.182 399.682C306.182 410.486 297.228 419.25 286.18 419.25" stroke="#E69E31" stroke-width="0.0699847" stroke-linejoin="round"/>
<path d="M271.796 399.683C271.796 395.367 273.792 391.499 276.92 388.915" stroke="#E69E31" stroke-width="0.0699847" stroke-linejoin="round"/>
<path d="M283.948 404.673L280.857 399.281L280.857 398.01L281.888 398.01C282.3 398.01 282.661 397.953 282.97 397.838C283.29 397.712 283.553 397.535 283.76 397.306C283.977 397.077 284.126 396.802 284.206 396.482L280.857 396.482L280.857 395.211L284.189 395.211C284.12 394.913 284 394.65 283.828 394.421C283.668 394.192 283.45 394.014 283.176 393.889C282.912 393.751 282.592 393.682 282.214 393.682L280.857 393.682L280.857 392.412L288.602 392.412L288.602 393.682L285.906 393.682C286.101 393.9 286.261 394.135 286.387 394.387C286.524 394.638 286.616 394.913 286.662 395.211L288.602 395.211L288.602 396.482L286.696 396.482C286.582 397.329 286.255 397.993 285.717 398.474C285.179 398.943 284.487 399.264 283.639 399.435L287.005 404.673L283.948 404.673Z" fill="#FF7F22"/>
<path d="M322.726 389.397C325.32 386.86 325.32 382.747 322.726 380.21C320.132 377.673 315.925 377.673 313.331 380.21C310.736 382.747 310.736 386.86 313.331 389.397C315.925 391.934 320.132 391.934 322.726 389.397Z" fill="#FEF9F3"/>
<path d="M326.57 397.776C326.57 399.437 325.195 400.782 323.496 400.782C321.797 400.782 320.421 399.437 320.421 397.776C320.421 396.114 321.797 394.77 323.496 394.77C325.195 394.77 326.57 396.114 326.57 397.776Z" fill="#FEF9F3"/>
<path fill-rule="evenodd" clip-rule="evenodd" d="M121.447 137.512C121.735 135.099 119.982 132.9 117.52 132.603C101.106 130.589 44.0988 123.601 27.6844 121.587C25.2229 121.289 22.9927 122.997 22.7043 125.411C21.7138 133.584 19.5872 151.097 18.5967 159.271C18.3084 161.684 20.0621 163.883 22.5236 164.18C38.938 166.194 95.945 173.182 112.359 175.196C114.821 175.493 117.051 173.785 117.339 171.372C118.33 163.199 120.457 145.685 121.447 137.512Z" fill="#8882EC"/>
<path fill-rule="evenodd" clip-rule="evenodd" d="M121.447 137.512C121.735 135.099 119.982 132.9 117.52 132.603C101.106 130.589 44.0988 123.601 27.6844 121.587C25.2229 121.289 22.9927 122.997 22.7043 125.411C21.7138 133.584 19.5872 151.097 18.5967 159.271C18.3084 161.684 20.0621 163.883 22.5236 164.18C38.938 166.194 95.945 173.182 112.359 175.196C114.821 175.493 117.051 173.785 117.339 171.372C118.33 163.199 120.457 145.685 121.447 137.512Z" fill="#BFD3FF"/>
<path fill-rule="evenodd" clip-rule="evenodd" d="M103.977 137.954C103.657 140.586 104.419 143.24 106.085 145.336C107.761 147.43 110.207 148.788 112.891 149.117C112.545 152.002 112.156 155.15 111.81 158.034C109.125 157.705 106.425 158.436 104.299 160.058C102.174 161.69 100.804 164.081 100.484 166.713C84.1927 164.716 52.3562 160.808 36.0648 158.811C36.3848 156.18 35.6235 153.526 33.9568 151.43C32.2812 149.336 29.8351 147.978 27.1505 147.648C27.4968 144.764 27.8858 141.616 28.232 138.732C30.9166 139.061 33.6174 138.33 35.7434 136.707C37.8592 135.077 39.2379 132.684 39.5579 130.053C55.8493 132.049 87.6857 135.958 103.977 137.954Z" fill="#235CD8"/>
<path fill-rule="evenodd" clip-rule="evenodd" d="M71.2361 138.339C76.8902 139.037 80.9243 144.097 80.256 149.645C79.5788 155.194 74.4508 159.127 68.798 158.437C63.1439 157.739 59.1098 152.679 59.7781 147.131C60.4553 141.581 65.5833 137.649 71.2361 138.339Z" fill="#EBEBEB"/>
<path d="M68.4136 152.851L65.2936 147.46L65.2874 146.19L66.3186 146.191C66.731 146.191 67.0917 146.135 67.4005 146.021C67.7207 145.895 67.9834 145.718 68.1885 145.49C68.405 145.261 68.5527 144.987 68.6313 144.666L65.2799 144.663L65.2737 143.393L68.6079 143.397C68.5377 143.099 68.4161 142.836 68.2431 142.607C68.0816 142.378 67.863 142.201 67.5874 142.075C67.3232 141.937 67.002 141.868 66.6239 141.868L65.2662 141.866L65.26 140.596L73.0112 140.605L73.0174 141.874L70.3191 141.872C70.5149 142.089 70.6765 142.324 70.8037 142.576C70.9425 142.827 71.0355 143.102 71.0828 143.399L73.0249 143.402L73.0311 144.671L71.1234 144.669C71.0129 145.515 70.6896 146.179 70.1535 146.658C69.6173 147.127 68.9256 147.446 68.0786 147.617L71.4728 152.854L68.4136 152.851Z" fill="#235CD8"/>
<path fill-rule="evenodd" clip-rule="evenodd" d="M129.028 206.345C128.363 204.636 126.418 203.767 124.677 204.406C113.06 208.648 72.7154 223.384 61.0981 227.626C59.3577 228.266 58.4826 230.164 59.1478 231.872C61.3913 237.661 66.1959 250.068 68.4394 255.858C69.1046 257.566 71.0499 258.436 72.7903 257.797C84.4076 253.554 124.752 238.818 136.37 234.576C138.11 233.937 138.985 232.039 138.32 230.331C136.076 224.541 131.272 212.134 129.028 206.345Z" fill="#8882EC"/>
<path fill-rule="evenodd" clip-rule="evenodd" d="M129.028 206.345C128.363 204.636 126.418 203.767 124.677 204.406C113.06 208.648 72.7154 223.384 61.0981 227.626C59.3577 228.266 58.4826 230.164 59.1478 231.872C61.3913 237.661 66.1959 250.068 68.4394 255.858C69.1046 257.566 71.0499 258.436 72.7903 257.797C84.4076 253.554 124.752 238.818 136.37 234.576C138.11 233.937 138.985 232.039 138.32 230.331C136.076 224.541 131.272 212.134 129.028 206.345Z" fill="#BFD3FF"/>
<path fill-rule="evenodd" clip-rule="evenodd" d="M117.577 212.585C118.299 214.449 119.747 215.961 121.598 216.792C123.454 217.619 125.561 217.692 127.46 216.999C128.254 219.041 129.114 221.273 129.908 223.315C128.008 224.009 126.474 225.415 125.638 227.221C124.806 229.033 124.745 231.094 125.467 232.959C113.939 237.17 91.4099 245.395 79.8821 249.606C79.1603 247.742 77.7125 246.23 75.8618 245.4C74.0056 244.573 71.899 244.499 69.9993 245.193C69.2052 243.151 68.346 240.918 67.552 238.876C69.4517 238.182 70.9858 236.776 71.8216 234.97C72.648 233.162 72.714 231.097 71.9922 229.232C83.52 225.021 106.05 216.796 117.577 212.585Z" fill="#235CD8"/>
<path fill-rule="evenodd" clip-rule="evenodd" d="M95.9735 223.983C99.9793 222.523 104.456 224.524 105.981 228.452C107.5 232.383 105.487 236.752 101.485 238.217C97.4791 239.676 93.0022 237.675 91.4776 233.748C89.9585 229.816 91.9716 225.448 95.9735 223.983Z" fill="white"/>
<path d="M97.5935 234.972L95.2394 230.96L95.2365 230.017L96.017 230.019C96.3292 230.021 96.6022 229.979 96.8361 229.895C97.0787 229.802 97.2777 229.671 97.4333 229.502C97.5975 229.333 97.7097 229.129 97.7696 228.891L95.2329 228.882L95.23 227.939L97.7537 227.948C97.7009 227.727 97.6093 227.531 97.4787 227.36C97.3567 227.19 97.1915 227.058 96.9831 226.963C96.7833 226.861 96.5403 226.809 96.2541 226.808L95.2265 226.804L95.2235 225.86L101.09 225.882L101.093 226.826L99.051 226.818C99.1989 226.98 99.3209 227.155 99.4169 227.342C99.5215 227.53 99.5915 227.734 99.6269 227.955L101.097 227.96L101.1 228.904L99.6559 228.898C99.5711 229.527 99.3255 230.019 98.919 230.374C98.5125 230.721 97.9885 230.957 97.3472 231.083L99.909 234.98L97.5935 234.972Z" fill="#235CD8"/>
</g>
<defs>
<clipPath id="clip0_1633_28384">
<rect width="429.368" height="472" fill="white" transform="translate(0.631348)"/>
</clipPath>
</defs>
</svg>
