<svg width="509" height="400" viewBox="0 0 509 400" fill="none" xmlns="http://www.w3.org/2000/svg">
<g clip-path="url(#clip0_1633_28124)">
<path d="M400.792 398.997H46.7236L191.412 52.9185H256.104L400.792 398.997Z" fill="#BFD3FF"/>
<path d="M217.623 26.8797L223.758 20.6992L229.893 26.8797" stroke="#FFC833" stroke-width="0.840577" stroke-miterlimit="10"/>
<path d="M223.758 20.6992V-0.000488281" stroke="#FFC833" stroke-width="0.840577" stroke-miterlimit="10"/>
<path d="M223.758 63.7099C229.213 63.7099 233.636 59.255 233.636 53.7595C233.636 48.264 229.213 43.8091 223.758 43.8091C218.303 43.8091 213.88 48.264 213.88 53.7595C213.88 59.255 218.303 63.7099 223.758 63.7099Z" fill="#FFC833" stroke="white" stroke-width="0.840577" stroke-miterlimit="10"/>
<path d="M256.104 52.9187H191.426L192.288 48.9526C195.126 35.8909 208.357 26.417 223.772 26.417C231.479 26.417 238.644 28.7855 244.223 32.7797C249.816 36.7738 253.823 42.4077 255.242 48.9386L256.104 52.9187Z" stroke="#9A3B82" stroke-width="0.840577" stroke-miterlimit="10" stroke-linecap="round"/>
<path d="M323.44 276.117H316.874V317.88H323.44V276.117Z" fill="#5D8DE9"/>
<path d="M442.683 317.881H405.3C403.951 317.881 402.907 316.703 403.074 315.358L408.277 271.114C408.417 269.978 409.376 269.124 410.503 269.124H447.886C449.235 269.124 450.279 270.301 450.112 271.646L444.909 315.89C444.769 317.026 443.81 317.881 442.683 317.881Z" fill="#9A3B82"/>
<path d="M422.315 317.88H392.793C390.985 317.88 389.579 316.282 389.788 314.474L393.572 282.255C393.753 280.727 395.047 279.564 396.577 279.564H426.809L422.315 317.88Z" fill="white" stroke="#FFC833" stroke-width="0.840577" stroke-miterlimit="10"/>
<path d="M425.626 317.88H397.454C395.645 317.88 394.24 316.282 394.449 314.474L398.233 282.255C398.414 280.727 399.708 279.564 401.238 279.564H429.772C430.676 279.564 431.386 280.363 431.275 281.274L427.129 316.521C427.045 317.305 426.392 317.88 425.626 317.88Z" fill="white" stroke="#FFC833" stroke-width="0.840577" stroke-miterlimit="10"/>
<path d="M335.252 282.395H323.857V317.88H335.252V282.395Z" stroke="#9A3B82" stroke-width="0.840577" stroke-miterlimit="10" stroke-linecap="round"/>
<path d="M347.328 282.395H331.287V317.88H347.328V282.395Z" stroke="#9A3B82" stroke-width="0.840577" stroke-miterlimit="10" stroke-linecap="round"/>
<path d="M366.763 317.88H362.325L345.811 278.499H350.249L366.763 317.88Z" stroke="#9A3B82" stroke-width="0.840577" stroke-miterlimit="10" stroke-linecap="round"/>
<path d="M375.222 317.88H366.958L352.74 284.483H361.004L375.222 317.88Z" stroke="#9A3B82" stroke-width="0.840577" stroke-miterlimit="10" stroke-linecap="round"/>
<path d="M316.456 282.395H304.964V317.88H316.456V282.395Z" stroke="#9A3B82" stroke-width="0.840577" stroke-miterlimit="10" stroke-linecap="round"/>
<path d="M358.416 255.193H304.964V262.117H358.416V255.193Z" stroke="#9A3B82" stroke-width="0.840577" stroke-miterlimit="10" stroke-linecap="round"/>
<path d="M372.676 249.896H304.964V255.473H372.676V249.896Z" fill="#F9A793"/>
<path d="M350.666 241.851H304.964V249.755H350.666V241.851Z" fill="#FFC833"/>
<path d="M358.416 235.811H304.964V241.711H358.416V235.811Z" stroke="#9A3B82" stroke-width="0.840577" stroke-miterlimit="10" stroke-linecap="round"/>
<path d="M450.641 220.255L450.599 220.493L444.283 262.116H385.684L392 220.493L392.084 219.904C393.085 217.858 399.207 216.274 406.622 216.274C414.733 216.274 421.3 218.166 421.3 220.493C421.3 218.166 427.866 216.274 435.977 216.274C443.81 216.288 450.196 218.04 450.641 220.255Z" fill="white" stroke="#FFC833" stroke-width="0.840577" stroke-miterlimit="10"/>
<path d="M415.053 262.131L421.313 220.507" stroke="#FFC833" stroke-width="0.840577" stroke-miterlimit="10"/>
<path d="M415.053 262.131C415.053 259.804 408.486 257.912 400.375 257.912C392.264 257.912 385.698 259.804 385.698 262.131H415.053Z" fill="#FFC833"/>
<path d="M444.408 262.131C444.408 259.804 437.841 257.912 429.73 257.912C421.619 257.912 415.053 259.804 415.053 262.131H444.408Z" fill="#FFC833"/>
<path d="M415.276 261.248C415.192 258.921 421.689 256.805 429.8 256.511C434.864 256.329 439.859 257.043 442.488 258.066L448.749 218.419" stroke="#FFC833" stroke-width="0.840577" stroke-miterlimit="10" stroke-linecap="round"/>
<path d="M445.966 206.366H393.35V194.566C393.35 193.403 394.282 192.464 395.436 192.464H443.893C445.048 192.464 445.98 193.403 445.98 194.566V206.366H445.966Z" fill="white" stroke="#9A3B82" stroke-width="0.840577" stroke-miterlimit="10" stroke-linecap="round"/>
<path d="M450.167 191.903H404.827C404.118 191.903 403.561 191.329 403.561 190.628V185.933C403.561 185.218 404.131 184.658 404.827 184.658H450.167C450.877 184.658 451.433 185.232 451.433 185.933V190.628C451.433 191.329 450.863 191.903 450.167 191.903Z" fill="#FFC833"/>
<path d="M451.934 180.257H398.149V184.657H451.934V180.257Z" fill="#F9A793"/>
<path d="M450.961 180.257H409.906C409.363 180.257 408.932 179.808 408.932 179.276V175.73C408.932 175.183 409.377 174.749 409.906 174.749H450.961C451.503 174.749 451.935 175.197 451.935 175.73V179.276C451.935 179.808 451.503 180.257 450.961 180.257Z" fill="white" stroke="#9A3B82" stroke-width="0.840577" stroke-miterlimit="10" stroke-linecap="round"/>
<path d="M338.02 163.075H322.23V206.366H338.02V163.075Z" stroke="#9A3B82" stroke-width="0.840577" stroke-miterlimit="10" stroke-linecap="round"/>
<path d="M322.23 163.075H315.858V206.366H322.23V163.075Z" fill="white" stroke="#9A3B82" stroke-width="0.840577" stroke-miterlimit="10" stroke-linecap="round"/>
<path d="M315.858 163.075H305.146V206.366H315.858V163.075Z" fill="white" stroke="#9A3B82" stroke-width="0.840577" stroke-miterlimit="10" stroke-linecap="round"/>
<path d="M353.95 170.895H340.107V206.38H353.95V170.895Z" stroke="#9A3B82" stroke-width="0.840577" stroke-miterlimit="10" stroke-linecap="round"/>
<path d="M341.109 206.366H335.656C335.127 206.366 334.682 205.932 334.682 205.385V171.848C334.682 171.316 335.113 170.867 335.656 170.867H341.109C341.638 170.867 342.083 171.302 342.083 171.848V205.385C342.069 205.932 341.638 206.366 341.109 206.366Z" fill="white" stroke="#9A3B82" stroke-width="0.840577" stroke-miterlimit="10" stroke-linecap="round"/>
<path d="M353.95 170.895V190.347L346.451 170.895H353.95Z" fill="#9A3B82"/>
<path d="M386.004 206.366H363.856C363.369 206.366 362.924 206.058 362.757 205.61L348.371 168.302C348.065 167.518 348.636 166.677 349.47 166.677H371.619C372.106 166.677 372.551 166.985 372.718 167.434L387.103 204.741C387.409 205.525 386.839 206.366 386.004 206.366Z" fill="white" stroke="#FFC833" stroke-width="0.840577" stroke-miterlimit="10"/>
<path d="M389.621 206.366H367.473C366.986 206.366 366.541 206.058 366.374 205.61L351.989 168.302C351.682 167.518 352.253 166.677 353.088 166.677H375.236C375.723 166.677 376.168 166.985 376.335 167.434L390.72 204.741C391.027 205.525 390.456 206.366 389.621 206.366Z" fill="white" stroke="#FFC833" stroke-width="0.840577" stroke-miterlimit="10"/>
<path d="M428.52 141.142C426.447 141.73 424.249 142.053 421.995 142.053C408.82 142.053 398.149 131.303 398.149 118.031C398.149 107.086 405.426 97.8362 415.373 94.9492L428.52 141.142Z" stroke="#FFC833" stroke-width="0.840577" stroke-miterlimit="10"/>
<path d="M421.995 142.053V150.616" stroke="#FFC833" stroke-width="0.840577" stroke-miterlimit="10"/>
<path d="M421.995 138.381C433.152 138.381 442.196 129.27 442.196 118.031C442.196 106.793 433.152 97.6821 421.995 97.6821C410.839 97.6821 401.794 106.793 401.794 118.031C401.794 129.27 410.839 138.381 421.995 138.381Z" fill="white" stroke="#235CD8" stroke-width="0.840577" stroke-miterlimit="10"/>
<path d="M430.44 150.56H413.62L421.968 146.341L430.44 150.56Z" fill="white" stroke="#FFC833" stroke-width="0.840577" stroke-miterlimit="10"/>
<path d="M451.934 150.616V398.998H444.324V380.919C444.324 376.897 441.083 373.631 437.09 373.631H319.725C315.732 373.631 312.491 376.897 312.491 380.919V398.998H304.964V150.616H451.934Z" stroke="#9A3B82" stroke-width="0.840577" stroke-miterlimit="10" stroke-linecap="round"/>
<path d="M441.375 366.75H315.246C313.646 366.75 312.338 365.447 312.338 363.821V327.257C312.338 325.645 313.632 324.328 315.246 324.328H441.375C442.975 324.328 444.283 325.631 444.283 327.257V363.821C444.283 365.447 442.975 366.75 441.375 366.75Z" stroke="#235CD8" stroke-width="0.840577" stroke-miterlimit="10"/>
<path d="M384.96 116.504V150.616H373.107L384.96 116.504Z" fill="#9A3B82"/>
<path d="M384.96 116.504L384.877 116.756L373.176 150.616H318.779L330.48 116.756L330.855 115.677C332.608 113.14 337.464 111.29 343.251 111.192H343.808C350.569 111.192 356.593 113.561 357.692 116.672C358.777 113.561 364.537 111.192 371.298 111.192C377.921 111.192 383.722 113.477 384.96 116.504Z" fill="white" stroke="#FFC833" stroke-width="0.840577" stroke-miterlimit="10"/>
<path d="M357.678 116.672L345.867 149.915" stroke="#FFC833" stroke-width="0.840577" stroke-miterlimit="10" stroke-linecap="round"/>
<path d="M345.839 150.196H318.779C319.781 147.042 325.402 144.618 332.163 144.618C338.952 144.618 344.837 147.042 345.839 150.196Z" fill="#FFC833"/>
<path d="M373.107 150.196H346.047C347.049 147.042 352.67 144.618 359.431 144.618C366.22 144.618 372.105 147.042 373.107 150.196Z" fill="#FFC833"/>
<path d="M369.253 335.161C369.253 334.068 370.13 333.171 371.229 333.171H385.99C387.075 333.171 387.965 334.054 387.965 335.161" stroke="#9A3B82" stroke-width="0.840577" stroke-miterlimit="10" stroke-linecap="round"/>
<path d="M304.964 262.13H451.934" stroke="#9A3B82" stroke-width="0.840577" stroke-miterlimit="10" stroke-linecap="round"/>
<path d="M304.964 206.366H451.934" stroke="#9A3B82" stroke-width="0.840577" stroke-miterlimit="10" stroke-linecap="round"/>
<path d="M304.964 317.881H451.934" stroke="#9A3B82" stroke-width="0.840577" stroke-miterlimit="10" stroke-linecap="round"/>
<path d="M323.05 98.5376L304.964 150.616H451.934L470.02 98.5376" stroke="#9A3B82" stroke-width="0.840577" stroke-linecap="round" stroke-linejoin="round"/>
<path d="M486.52 385.627C486.52 388.444 486.006 391.149 485.06 393.658C483.682 397.302 480.19 399.684 476.309 399.684H446.856C442.989 399.684 439.483 397.302 438.119 393.658C437.173 391.149 436.659 388.444 436.659 385.627C436.659 377.499 440.93 370.323 447.455 366.035V361.298C447.455 363.372 453.785 365.054 461.576 365.054C469.367 365.054 475.697 363.372 475.697 361.298V366.049C482.249 370.323 486.52 377.499 486.52 385.627Z" fill="#F9A793"/>
<path d="M475.724 364.746V366.007C473.485 367.801 467.391 368.754 461.603 368.754C455.816 368.754 449.722 367.801 447.482 366.007V364.746C447.747 365.348 448.874 366.133 451.378 366.792C454.105 367.52 457.736 367.913 461.603 367.913C465.471 367.913 469.102 367.52 471.829 366.792C474.333 366.119 475.446 365.334 475.724 364.746Z" fill="white"/>
<path d="M475.724 361.298C475.724 363.372 469.394 365.054 461.603 365.054C453.813 365.054 447.482 363.372 447.482 361.298C447.482 361.032 447.58 360.779 447.775 360.527C449.11 358.831 454.786 357.542 461.603 357.542C468.42 357.542 474.097 358.817 475.432 360.527C475.613 360.779 475.724 361.032 475.724 361.298Z" fill="#5D8DE9"/>
<path d="M442.697 379.671C443.68 379.671 444.478 378.868 444.478 377.877C444.478 376.886 443.68 376.083 442.697 376.083C441.713 376.083 440.916 376.886 440.916 377.877C440.916 378.868 441.713 379.671 442.697 379.671Z" stroke="#FFC833" stroke-width="0.840577" stroke-miterlimit="10"/>
<path d="M448.734 384.086C449.718 384.086 450.515 383.283 450.515 382.292C450.515 381.301 449.718 380.498 448.734 380.498C447.751 380.498 446.954 381.301 446.954 382.292C446.954 383.283 447.751 384.086 448.734 384.086Z" stroke="#FFC833" stroke-width="0.840577" stroke-miterlimit="10"/>
<path d="M456.247 378.845C457.231 378.845 458.028 378.041 458.028 377.051C458.028 376.06 457.231 375.257 456.247 375.257C455.264 375.257 454.466 376.06 454.466 377.051C454.466 378.041 455.264 378.845 456.247 378.845Z" stroke="#FFC833" stroke-width="0.840577" stroke-miterlimit="10"/>
<path d="M455.19 390.757C456.173 390.757 456.971 389.954 456.971 388.963C456.971 387.972 456.173 387.169 455.19 387.169C454.206 387.169 453.409 387.972 453.409 388.963C453.409 389.954 454.206 390.757 455.19 390.757Z" stroke="#FFC833" stroke-width="0.840577" stroke-miterlimit="10"/>
<path d="M448.512 395.984C449.496 395.984 450.293 395.181 450.293 394.19C450.293 393.2 449.496 392.396 448.512 392.396C447.529 392.396 446.731 393.2 446.731 394.19C446.731 395.181 447.529 395.984 448.512 395.984Z" stroke="#FFC833" stroke-width="0.840577" stroke-miterlimit="10"/>
<path d="M441.778 390.757C442.762 390.757 443.559 389.954 443.559 388.963C443.559 387.972 442.762 387.169 441.778 387.169C440.795 387.169 439.998 387.972 439.998 388.963C439.998 389.954 440.795 390.757 441.778 390.757Z" stroke="#FFC833" stroke-width="0.840577" stroke-miterlimit="10"/>
<path d="M449.709 373.014C450.692 373.014 451.489 372.211 451.489 371.22C451.489 370.229 450.692 369.426 449.709 369.426C448.725 369.426 447.928 370.229 447.928 371.22C447.928 372.211 448.725 373.014 449.709 373.014Z" stroke="#FFC833" stroke-width="0.840577" stroke-miterlimit="10"/>
<path d="M463.885 370.786C464.868 370.786 465.666 371.589 465.666 372.58C465.666 373.57 464.868 374.373 463.885 374.373C462.901 374.373 462.104 373.57 462.104 372.58C462.104 371.589 462.901 370.786 463.885 370.786Z" stroke="#FFC833" stroke-width="0.840577" stroke-miterlimit="10"/>
<path d="M462.396 385.249C463.38 385.249 464.177 384.446 464.177 383.455C464.177 382.464 463.38 381.661 462.396 381.661C461.413 381.661 460.616 382.464 460.616 383.455C460.616 384.446 461.413 385.249 462.396 385.249Z" stroke="#FFC833" stroke-width="0.840577" stroke-miterlimit="10"/>
<path d="M467.544 392.396C468.527 392.396 469.325 391.593 469.325 390.602C469.325 389.612 468.527 388.809 467.544 388.809C466.56 388.809 465.763 389.612 465.763 390.602C465.763 391.593 466.56 392.396 467.544 392.396Z" stroke="#FFC833" stroke-width="0.840577" stroke-miterlimit="10"/>
<path d="M460.866 397.778C461.85 397.778 462.647 396.975 462.647 395.984C462.647 394.994 461.85 394.19 460.866 394.19C459.883 394.19 459.085 394.994 459.085 395.984C459.085 396.975 459.883 397.778 460.866 397.778Z" stroke="#FFC833" stroke-width="0.840577" stroke-miterlimit="10"/>
<path d="M469.45 380.96C470.434 380.96 471.231 380.157 471.231 379.166C471.231 378.176 470.434 377.373 469.45 377.373C468.467 377.373 467.669 378.176 467.669 379.166C467.669 380.157 468.467 380.96 469.45 380.96Z" stroke="#FFC833" stroke-width="0.840577" stroke-miterlimit="10"/>
<path d="M474.611 373.602C475.595 373.602 476.392 372.799 476.392 371.809C476.392 370.818 475.595 370.015 474.611 370.015C473.628 370.015 472.831 370.818 472.831 371.809C472.831 372.799 473.628 373.602 474.611 373.602Z" stroke="#FFC833" stroke-width="0.840577" stroke-miterlimit="10"/>
<path d="M480.482 379.559C481.466 379.559 482.263 378.756 482.263 377.765C482.263 376.774 481.466 375.971 480.482 375.971C479.499 375.971 478.702 376.774 478.702 377.765C478.702 378.756 479.499 379.559 480.482 379.559Z" stroke="#FFC833" stroke-width="0.840577" stroke-miterlimit="10"/>
<path d="M473.763 385.431C474.746 385.431 475.543 384.628 475.543 383.637C475.543 382.646 474.746 381.843 473.763 381.843C472.779 381.843 471.982 382.646 471.982 383.637C471.982 384.628 472.779 385.431 473.763 385.431Z" stroke="#FFC833" stroke-width="0.840577" stroke-miterlimit="10"/>
<path d="M481.804 389.187C482.788 389.187 483.585 388.384 483.585 387.393C483.585 386.402 482.788 385.599 481.804 385.599C480.821 385.599 480.023 386.402 480.023 387.393C480.023 388.384 480.821 389.187 481.804 389.187Z" stroke="#FFC833" stroke-width="0.840577" stroke-miterlimit="10"/>
<path d="M476.393 396.082C477.376 396.082 478.173 395.279 478.173 394.288C478.173 393.298 477.376 392.495 476.393 392.495C475.409 392.495 474.612 393.298 474.612 394.288C474.612 395.279 475.409 396.082 476.393 396.082Z" stroke="#FFC833" stroke-width="0.840577" stroke-miterlimit="10"/>
<path d="M492.795 339.463C492.795 339.463 506.011 332.273 508.196 344.83C510.728 359.336 493.532 372.103 493.532 372.103C493.532 372.103 489.831 362.867 479.912 354.907C471.328 348.026 478.451 329.779 492.795 339.463Z" fill="white" stroke="#FFC833" stroke-width="0.840577" stroke-miterlimit="10"/>
<path d="M466.848 323.473C473.123 323.529 482.138 310.691 473.624 296.606C463.343 279.593 461.576 269.74 461.576 269.74C461.576 269.74 446.453 289.893 449.027 305.352C451.851 322.281 466.848 323.473 466.848 323.473Z" fill="#FFC833"/>
<path d="M467.933 314.923C477.101 317.362 485.81 311.742 485.991 298.933C486.311 276.285 490.568 268.913 490.568 268.913C490.568 268.913 462.006 279.27 457.68 295.359C453.562 310.691 467.933 314.923 467.933 314.923Z" fill="white" stroke="#FFC833" stroke-width="0.840577" stroke-miterlimit="10"/>
<path d="M429.619 329.835C429.285 329.863 428.937 329.891 428.562 329.919C408.834 331.404 403.158 349.595 403.158 349.595C403.158 349.595 401.947 348.278 402.198 343.723C402.671 331.979 413.397 319.842 425.64 327.55C427.003 328.419 428.339 329.162 429.619 329.835Z" fill="#FFC833"/>
<path d="M451.99 334.306C448.512 334.53 440.568 335.497 429.619 329.835C428.339 329.176 427.004 328.42 425.64 327.551C413.397 319.843 402.949 331.979 402.476 343.724C402.448 344.298 402.588 344.873 402.615 345.433C401.461 335.231 401.488 309.836 432.137 310.691C453.201 311.308 451.99 334.306 451.99 334.306Z" fill="white" stroke="#FFC833" stroke-width="0.840577" stroke-miterlimit="10"/>
<path d="M456.998 360.555C456.998 360.555 460.629 309.584 411.561 316.241" stroke="#FFC833" stroke-width="0.840577" stroke-miterlimit="10"/>
<path d="M490.569 268.913C459.655 300.726 465.415 360.555 465.415 360.555C462.16 337.669 482.138 314.923 492.781 338.86C495.953 345.98 493.518 372.089 493.518 372.089" stroke="#FFC833" stroke-width="0.840577" stroke-miterlimit="10"/>
<path d="M32.5199 320.487L28.374 324.144C27.7062 323.346 27.108 322.463 26.5932 321.496L0.744136 272.977C-0.341026 270.945 1.11977 268.492 3.40139 268.492H7.01859C9.91236 268.492 12.5557 270.09 13.9191 272.655L34.245 310.802C35.998 314.054 35.2745 318.076 32.5199 320.487Z" fill="#FFC833"/>
<path d="M102.888 321.552L42.7451 333.997V332.736C42.7451 326.695 46.9606 321.496 52.8316 320.277L91.5774 312.26C97.4206 311.055 102.888 315.554 102.888 321.552Z" fill="#FFC833"/>
<path d="M96.0714 398.997V338.299C96.0714 333.268 91.4942 329.512 86.5971 330.521L48.8251 338.327C44.3314 339.252 40.6308 342.42 38.9891 346.736L19.0527 398.997" stroke="#9A3B82" stroke-width="0.840577" stroke-miterlimit="10" stroke-linecap="round"/>
<path d="M0.59082 272.711L29.9597 327.831C32.4779 332.554 37.7646 335.048 42.9817 333.969L103.027 321.552" stroke="#9A3B82" stroke-width="0.840577" stroke-miterlimit="10" stroke-linecap="round"/>
<path d="M124.216 276.537H73.3945V283.376H124.216V276.537Z" fill="#5D8DE9"/>
<path d="M114.951 269.109C115.563 269.684 115.938 270.721 115.938 271.59C115.938 273.328 114.436 275.107 112.572 275.107H66.2158C66.2158 275.92 66.8697 276.579 67.6766 276.579H123.618C125.121 276.579 126.47 276.018 127.458 275.093C128.446 274.182 129.044 272.907 129.044 271.506C129.044 268.703 126.609 266.446 123.618 266.446H67.6766C66.8697 266.446 66.2158 267.105 66.2158 267.918V268.184H112.572C113.504 268.198 114.339 268.548 114.951 269.109Z" fill="#F9A793"/>
<path d="M69.5685 268.198V274.981H66.2295V275.542H112.738C113.253 275.542 113.754 275.444 114.199 275.262C114.7 275.065 115.145 274.757 115.507 274.393C116.216 273.678 116.662 272.683 116.662 271.59C116.662 269.404 114.895 267.638 112.738 267.638H66.2295V268.198H69.5685Z" fill="#F9A793"/>
<path d="M68.2744 268.199V274.982H112.571C114.436 274.982 115.938 273.468 115.938 271.59C115.938 270.651 115.562 269.81 114.95 269.194C114.338 268.577 113.503 268.199 112.571 268.199H68.2744Z" fill="white"/>
<path d="M68.2744 268.199V274.982" stroke="#F9A793" stroke-width="0.700481" stroke-miterlimit="10"/>
<path d="M106.381 273.006V278.668H110.262V273.734C110.262 272.557 111.208 271.604 112.377 271.604H114.102V270.875H108.482C107.341 270.875 106.381 271.828 106.381 273.006Z" fill="#FFC833"/>
<path d="M44.8594 289.234C44.8594 286.249 47.2662 283.825 50.2295 283.825H155.824C158.787 283.825 161.194 286.249 161.194 289.234" stroke="#9A3B82" stroke-width="0.840577" stroke-miterlimit="10" stroke-linecap="round"/>
<path d="M161.278 398.997L131.464 294.392C130.142 289.767 125.593 286.543 120.39 286.543H85.6508C80.4476 286.543 75.8982 289.767 74.5766 294.392L44.7764 398.997" stroke="#9A3B82" stroke-width="0.840577" stroke-miterlimit="10" stroke-linecap="round"/>
<path d="M186.307 380.89V396.138C186.307 397.722 187.573 398.997 189.145 398.997H226.986C226.986 398.997 227.209 391.92 221.449 389.944C211.669 386.594 207.106 380.89 207.106 380.89H186.307Z" fill="white" stroke="#F9A793" stroke-width="0.840577" stroke-miterlimit="10"/>
<path d="M207.356 388.696C208.901 388.262 214.466 385.165 212.56 383.245C211.655 382.334 209.485 383.245 209.485 383.245" stroke="#F9A793" stroke-width="0.840577" stroke-miterlimit="10"/>
<path d="M213.06 390.798C214.604 390.364 219.947 386.902 217.846 385.206C216.26 383.917 213.881 386.412 213.881 386.412" stroke="#F9A793" stroke-width="0.840577" stroke-miterlimit="10"/>
<path d="M208.274 382.123L186.307 389.005V380.89H207.119C207.119 380.89 207.495 381.367 208.274 382.123Z" fill="#F9A793"/>
<path d="M233.748 380.89V396.138C233.748 397.722 235.014 398.997 236.586 398.997H274.428C274.428 398.997 274.65 391.92 268.891 389.944C259.11 386.594 254.547 380.89 254.547 380.89H233.748Z" fill="white" stroke="#F9A793" stroke-width="0.840577" stroke-miterlimit="10"/>
<path d="M254.797 388.696C256.342 388.262 261.907 385.165 260.001 383.245C259.096 382.334 256.926 383.245 256.926 383.245" stroke="#F9A793" stroke-width="0.840577" stroke-miterlimit="10"/>
<path d="M260.501 390.798C262.046 390.364 267.388 386.902 265.287 385.206C263.701 383.917 261.322 386.412 261.322 386.412" stroke="#F9A793" stroke-width="0.840577" stroke-miterlimit="10"/>
<path d="M255.716 382.123L233.748 389.005V380.89H254.561C254.561 380.89 254.937 381.367 255.716 382.123Z" fill="#F9A793"/>
<path d="M196.531 229.111L182.828 373.631H211.487L225.886 303.599L231.771 318.525V373.631H261.613V311.84L245.697 229.111H196.531Z" fill="#235CD8"/>
<path d="M211.459 263.825L198.131 373.63" stroke="#9A3B82" stroke-width="0.840577" stroke-miterlimit="10"/>
<path d="M246.171 373.631V311.84L227.473 236.119" stroke="#9A3B82" stroke-width="0.840577" stroke-miterlimit="10"/>
<path d="M231.354 318.525L213.491 266.264C212.879 264.47 211.195 263.265 209.303 263.265" stroke="white" stroke-width="0.840577" stroke-miterlimit="10"/>
<path d="M194.264 253.006L196.531 229.111H245.698L247.103 236.455L194.264 253.006Z" fill="#9A3B82"/>
<path d="M261.669 380.89H231.66C230.533 380.89 229.615 379.966 229.615 378.83V375.691C229.615 374.556 230.533 373.631 231.66 373.631H261.669C262.796 373.631 263.714 374.556 263.714 375.691V378.83C263.7 379.966 262.796 380.89 261.669 380.89Z" fill="#9A3B82"/>
<path d="M212.002 380.89H181.993C180.866 380.89 179.948 379.966 179.948 378.83V375.691C179.948 374.556 180.866 373.631 181.993 373.631H212.002C213.129 373.631 214.047 374.556 214.047 375.691V378.83C214.033 379.966 213.129 380.89 212.002 380.89Z" fill="#9A3B82"/>
<path d="M292.096 233.344L301.5 268.787L254.616 281.415L245.197 245.943C244.905 244.836 244.196 243.967 243.291 243.435C242.387 242.902 241.274 242.72 240.175 243.014C237.991 243.603 236.683 245.873 237.267 248.074L246.686 283.545L245.656 283.825L236.252 248.382C235.5 245.565 237.114 242.678 239.869 241.837C239.924 241.823 239.98 241.809 240.036 241.795L285.557 229.532C288.409 228.775 291.33 230.485 292.096 233.344Z" fill="#5D8DE9"/>
<path d="M246.241 245.705L255.645 281.148L254.616 281.429L245.197 245.958C244.905 244.85 244.196 243.981 243.291 243.449C242.387 242.916 241.274 242.734 240.175 243.028C237.991 243.617 236.683 245.887 237.267 248.088L246.686 283.559L245.656 283.839L236.252 248.396C235.5 245.579 237.114 242.692 239.869 241.851C242.665 241.193 245.489 242.888 246.241 245.705Z" fill="#9A3B82"/>
<path d="M245.197 245.943L254.032 279.242L246.102 281.372L237.267 248.074C236.683 245.873 237.977 243.603 240.175 243.014C241.274 242.72 242.387 242.902 243.291 243.435C244.196 243.967 244.905 244.836 245.197 245.943Z" fill="white"/>
<path d="M292.235 252.124L270.907 259.523L254.073 229.112H188.825C177.736 229.112 169.445 218.839 171.712 207.907L178.502 175.057C180.63 164.77 189.631 157.398 200.052 157.398H244.669C255.479 157.398 264.688 165.303 266.4 176.052L273.119 208.033L292.235 252.124Z" fill="#FFC833" stroke="white" stroke-width="0.840577" stroke-miterlimit="10"/>
<path d="M185.347 228.762C177.667 227.206 171.963 220.619 171.379 212.855C171.963 212.448 172.617 212.098 173.313 211.846C178.363 209.968 184.137 213.051 186.237 218.727C187.531 222.287 187.086 226.015 185.347 228.762Z" fill="white"/>
<path d="M233.928 137.694V157.412H212.322L217.303 144.295L233.928 137.694Z" fill="#FA876B"/>
<path d="M238.895 129.397C238.881 129.397 238.853 129.411 238.839 129.411L232.425 131.121C230.13 131.738 228.363 133.447 227.612 135.606H225.149C223.591 135.606 222.325 136.881 222.325 138.451V138.493C222.325 139.978 223.452 141.198 224.899 141.324L224.885 141.338C224.885 141.338 223.744 146.803 217.08 144.968C217.08 144.968 217.344 130.589 217.623 126.118C217.859 122.432 237.267 115.453 239.062 118.424C240.648 121.059 238.811 122.292 237.253 122.838C240.008 122.25 245.211 121.465 245.739 123.805C246.352 126.524 240.856 128.879 238.895 129.397Z" fill="#9A3B82"/>
<path d="M240.147 139.473H239.465L239.66 142.837C239.799 145.247 237.879 147.294 235.486 147.294H232.481C229.587 147.294 227.236 144.925 227.236 142.01V141.351H225.163C223.605 141.351 222.339 140.076 222.339 138.506V138.464C222.339 136.895 223.605 135.619 225.163 135.619H227.626C228.377 133.461 230.144 131.737 232.439 131.135L238.853 129.425L241.051 138.296C241.274 138.857 240.745 139.473 240.147 139.473Z" fill="#FA876B"/>
<path d="M227.89 142.276C227.597 145.36 230.658 147.56 233.552 147.56" stroke="#9A3B82" stroke-width="0.700481" stroke-miterlimit="10" stroke-linecap="round"/>
<path d="M226.763 138.982C226.763 137.889 225.886 137.006 224.801 137.006" stroke="#9A3B82" stroke-width="0.700481" stroke-miterlimit="10" stroke-linecap="round"/>
<path d="M237.781 136.979C238.066 136.979 238.296 136.495 238.296 135.899C238.296 135.303 238.066 134.82 237.781 134.82C237.497 134.82 237.267 135.303 237.267 135.899C237.267 136.495 237.497 136.979 237.781 136.979Z" fill="#9A3B82"/>
<path d="M235.555 133.629C235.555 133.629 237.266 132.312 239.715 132.312" stroke="#9A3B82" stroke-width="0.700481" stroke-miterlimit="10" stroke-linecap="round"/>
<path d="M238.16 142.68C237.122 143.755 236.087 143.626 234.802 142.368" stroke="#9A3B82" stroke-width="0.560385" stroke-miterlimit="10" stroke-linecap="round"/>
<path d="M228.934 238.095C228.934 238.095 245.977 238.838 251.973 225.061L248.801 219.217L239.327 222.889L228.934 238.095Z" fill="white" stroke="#F9A793" stroke-width="0.840577" stroke-miterlimit="10"/>
<path d="M242.582 153.797C241.761 153.867 241.01 154.231 240.454 154.792C239.842 155.409 239.452 156.263 239.452 157.216V226.267C239.452 232.854 234.151 238.193 227.613 238.193H201.332C194.265 238.193 188.811 232.013 189.562 224.991V224.977L199.023 159.431C199.496 156.193 202.237 153.797 205.492 153.797H242.582Z" fill="#F9A793" stroke="#F9A793" stroke-width="0.840577" stroke-miterlimit="10"/>
<path d="M239.939 153.797C239.118 153.867 238.367 154.231 237.81 154.792C237.295 155.31 236.948 155.983 236.85 156.74C236.836 156.894 236.822 157.048 236.822 157.202L236.266 162.486L229.588 226.253C229.588 232.84 224.287 238.179 217.749 238.179H201.346C194.278 238.179 188.825 231.999 189.576 224.977V224.963L193.847 195.336L199.036 159.417C199.078 159.108 199.148 158.8 199.231 158.492C200.038 155.731 202.57 153.783 205.492 153.783H239.939V153.797Z" fill="white" stroke="#F9A793" stroke-width="0.840577" stroke-miterlimit="10"/>
<path d="M234.082 167.545L231.591 186.367C230.771 190.221 227.793 192.281 223.48 192.982L193.986 197.298L198.285 167.531H234.082V167.545Z" fill="#FFC833"/>
<path d="M238.882 153.797H238.144C236.809 153.783 235.64 154.736 235.376 156.067L231.035 184.279C230.214 188.133 226.833 190.894 222.924 190.894H195.781C192.498 190.894 190.049 187.839 190.759 184.601L195.99 160.664C196.866 156.656 200.4 153.797 204.476 153.797H238.882Z" fill="#F9A793" stroke="#F9A793" stroke-width="0.840577" stroke-miterlimit="10"/>
<path d="M216.51 198.742L223.424 156.151C223.564 155.297 224.301 154.652 225.164 154.652C226.249 154.652 227.083 155.633 226.903 156.726L219.988 199.317C219.849 200.172 219.112 200.816 218.249 200.816C217.164 200.816 216.329 199.835 216.51 198.742Z" fill="white" stroke="#F9A793" stroke-width="0.840577" stroke-miterlimit="10"/>
<path d="M201.054 198.742L207.968 156.151C208.107 155.297 208.844 154.652 209.707 154.652C210.792 154.652 211.627 155.633 211.446 156.726L204.532 199.317C204.392 200.172 203.655 200.816 202.793 200.816C201.707 200.816 200.873 199.835 201.054 198.742Z" fill="white" stroke="#F9A793" stroke-width="0.840577" stroke-miterlimit="10"/>
<path d="M246.269 157.427L239.466 157.455V157.216C239.466 156.263 239.841 155.409 240.468 154.792C241.024 154.231 241.761 153.867 242.596 153.797H243.153C244.864 153.937 246.213 155.395 246.269 157.427Z" fill="white" stroke="#F9A793" stroke-width="0.840577" stroke-miterlimit="10"/>
<path d="M289.69 253.006L295.421 267.904C296.34 270.3 295.004 272.963 292.556 273.65L279.965 277.126C279.2 277.336 278.393 277.154 277.795 276.635L276.515 275.514L279.13 274.813C280.285 274.505 281.064 273.426 281.008 272.22L280.716 269.249C280.66 267.918 279.589 266.853 278.268 266.811H278.407C276.807 266.755 275.249 265.76 274.623 264.274L272.619 258.907L289.69 253.006Z" fill="#FA876B"/>
<path d="M276.779 275.808L278.838 275.247C279.992 274.939 280.771 274 280.716 272.795L280.563 269.543C280.507 268.212 279.436 267.147 278.114 267.105C276.514 267.049 275.095 266.054 274.469 264.568L272.327 259.481" stroke="white" stroke-width="0.840577" stroke-miterlimit="10" stroke-linecap="round"/>
<path d="M283.513 275.78C284.987 275.388 285.989 274.014 285.92 272.473L285.725 268.324" stroke="white" stroke-width="0.840577" stroke-miterlimit="10" stroke-linecap="round"/>
<path d="M288.841 274.393C290.316 274 291.317 272.627 291.248 271.085L291.053 266.937" stroke="white" stroke-width="0.840577" stroke-miterlimit="10" stroke-linecap="round"/>
<path d="M241.177 190.894L244.544 208.636C245.114 211.663 246.171 214.592 247.66 217.283L270.893 259.523L292.221 252.124" stroke="white" stroke-width="0.840577" stroke-miterlimit="10"/>
<path d="M255.27 231.13L247.66 217.283C246.38 214.943 245.42 212.448 244.808 209.856C245.532 209.617 246.283 209.449 247.076 209.379C253.086 208.847 258.414 213.934 258.985 220.731C259.319 224.851 257.83 228.649 255.27 231.13Z" fill="white"/>
</g>
<defs>
<clipPath id="clip0_1633_28124">
<rect width="508.694" height="399.685" fill="white" transform="translate(0.17334)"/>
</clipPath>
</defs>
</svg>
