<svg width="449" height="418" viewBox="0 0 449 418" fill="none" xmlns="http://www.w3.org/2000/svg">
<g clip-path="url(#clip0_1633_27743)">
<path d="M293.917 417.421H118.834" stroke="#FFC833" stroke-width="0.925524" stroke-miterlimit="10" stroke-linecap="round"/>
<path d="M206.437 257.435V328.281C206.437 350.093 195.494 370.344 177.523 381.79L152.232 397.902" stroke="#5D8DE9" stroke-width="0.925524" stroke-linecap="round" stroke-linejoin="round"/>
<path d="M220.138 257.435V328.281C220.138 350.093 231.081 370.344 249.051 381.79L274.343 397.902" stroke="#5D8DE9" stroke-width="0.925524" stroke-linecap="round" stroke-linejoin="round"/>
<path d="M229.339 257.435H198.499C195.771 257.435 193.567 255.159 193.567 252.341V244.301H234.271V252.341C234.271 255.159 232.067 257.435 229.339 257.435Z" fill="white" stroke="#5D8DE9" stroke-width="0.925524" stroke-miterlimit="10"/>
<path d="M151.091 417.421C157.348 417.421 162.419 412.183 162.419 405.719C162.419 399.255 157.348 394.018 151.091 394.018C144.834 394.018 139.763 399.255 139.763 405.719C139.763 412.183 144.834 417.421 151.091 417.421Z" fill="white" stroke="#FFC833" stroke-width="0.925524" stroke-miterlimit="10"/>
<path d="M274.589 417.421C280.847 417.421 285.917 412.183 285.917 405.719C285.917 399.255 280.847 394.018 274.589 394.018C268.332 394.018 263.261 399.255 263.261 405.719C263.261 412.183 268.332 417.421 274.589 417.421Z" fill="white" stroke="#FFC833" stroke-width="0.925524" stroke-miterlimit="10"/>
<path d="M274.589 414.953C279.521 414.953 283.528 410.814 283.528 405.719C283.528 400.625 279.521 396.485 274.589 396.485C269.657 396.485 265.65 400.625 265.65 405.719C265.65 410.814 269.657 414.953 274.589 414.953Z" fill="white" stroke="#FFC833" stroke-width="0.925524" stroke-miterlimit="10"/>
<path d="M151.138 414.953C156.069 414.953 160.077 410.814 160.077 405.719C160.077 400.625 156.069 396.485 151.138 396.485C146.206 396.485 142.198 400.625 142.198 405.719C142.198 410.814 146.206 414.953 151.138 414.953Z" fill="white" stroke="#FFC833" stroke-width="0.925524" stroke-miterlimit="10"/>
<path d="M229.94 362.511C229.94 362.511 215.267 351.398 196.603 362.511" stroke="#5D8DE9" stroke-width="0.925524" stroke-linecap="round" stroke-linejoin="round"/>
<path d="M206.791 237.949L220.971 387.809H177.277L141.351 252.962C134.739 230.96 148.965 208.575 171.112 208.527H174.195C190.593 208.48 204.495 221.041 206.791 237.949Z" fill="#235CD8"/>
<path d="M212.432 387.809H189.407L193.028 400.052C197.575 395.371 203.91 391.996 210.83 391.566C211.477 391.518 212.109 391.502 212.741 391.502L212.432 387.809Z" fill="#E57281"/>
<path d="M186.016 417.325C184.814 405.798 196.588 392.457 210.845 391.55C225.101 390.642 233.902 400.369 234.595 411.928C234.703 413.679 234.857 415.812 234.487 417.373L186.016 417.325Z" fill="white" stroke="#FDCDC1" stroke-width="0.925524" stroke-miterlimit="10"/>
<path d="M234.179 413.138L186.015 413.727" stroke="#FDCDC1" stroke-width="0.925524" stroke-miterlimit="10"/>
<path d="M194.369 387.809L157.919 364.883L239.419 223.843C249.729 206.951 275.899 201.729 292.406 212.11C311.44 224.082 315.17 251.003 300.158 268.007L194.369 387.809Z" fill="#235CD8"/>
<path d="M194.214 387.172L157.61 364.565L239.264 223.843C249.575 206.951 275.745 201.729 292.252 212.11C311.286 224.082 315.015 251.003 300.004 268.007L194.214 387.172Z" stroke="white" stroke-width="0.925524" stroke-miterlimit="10"/>
<path d="M158.489 363.88C160.107 361.11 169.586 363.928 179.666 370.2C189.745 376.457 196.573 384.003 194.955 386.774C193.336 389.544 183.889 386.503 173.809 380.246C163.745 373.989 156.886 366.666 158.489 363.88Z" fill="#73325A"/>
<path d="M160.708 381.806L177.724 392.855L182.532 387.283L183.996 385.579L190.1 378.51C187.48 375.74 183.888 372.811 179.65 370.2C176.229 368.082 172.853 366.395 169.802 365.249L165.039 373.893L163.991 375.788L160.708 381.806Z" fill="#E57281"/>
<path d="M133.861 393.794L176.244 417.404C177.308 416.226 178.217 414.841 178.942 413.265C179.558 411.944 180.036 410.559 180.406 409.158C182.902 399.478 179.373 388.381 168.107 382.841C158.166 377.953 145.79 380.755 138.639 387.187C136.527 389.114 134.863 391.358 133.861 393.794Z" fill="white" stroke="#FDCDC1" stroke-width="0.925524" stroke-miterlimit="10"/>
<path d="M136.126 390.212L178.525 413.823" stroke="#FDCDC1" stroke-width="0.925524" stroke-miterlimit="10" stroke-linecap="round"/>
<path d="M165.07 373.878C167.505 375.979 170.495 378.177 173.84 380.246C177.415 382.475 180.929 384.29 184.027 385.58L190.438 378.511C187.818 375.741 183.919 372.811 179.681 370.2C176.259 368.083 172.884 366.236 169.832 365.09L165.07 373.878Z" fill="#BD3F4F"/>
<path d="M159.429 361.428C161.047 358.657 171.281 361.412 181.53 367.78C191.779 374.148 198.283 381.615 196.665 384.385" stroke="white" stroke-width="0.925524" stroke-miterlimit="10"/>
<path d="M17.5439 244.301C13.5213 244.301 10.2539 240.926 10.2539 236.77V207.954C10.2539 203.799 13.5213 200.424 17.5439 200.424H422.947C426.97 200.424 430.237 203.799 430.237 207.954V236.77C430.237 240.926 426.97 244.301 422.947 244.301H17.5439Z" fill="#7AD2C1"/>
<path d="M17.6672 193.896H422.839C426.862 193.896 430.129 197.272 430.129 201.427V230.243C430.129 234.398 426.862 237.773 422.839 237.773H17.6672C13.6446 237.773 10.3772 234.398 10.3772 230.243V201.427C10.3772 197.272 13.6446 193.896 17.6672 193.896Z" fill="white" stroke="#FFC833" stroke-width="0.925524" stroke-miterlimit="10"/>
<path d="M38.7666 237.805V417.484" stroke="#FFC833" stroke-width="0.925524" stroke-miterlimit="10" stroke-linecap="round"/>
<path d="M392.462 237.805V417.484" stroke="#FFC833" stroke-width="0.925524" stroke-miterlimit="10" stroke-linecap="round"/>
<path d="M405.778 372.764L406.425 373.194L429.944 335.764L437.019 336.322C438.529 336.449 439.731 335.032 439.423 333.488C439.099 331.959 437.45 331.163 436.109 331.928L430.299 335.223L434.568 328.409L441.642 328.982C443.153 329.11 444.355 327.677 444.031 326.148C443.707 324.62 442.058 323.824 440.717 324.588L434.907 327.868L439.176 321.054L446.25 321.627C447.761 321.754 448.963 320.322 448.639 318.793C448.316 317.265 446.667 316.469 445.326 317.233L439.515 320.528L442.089 316.437L446.867 312.218C448.023 311.199 447.9 309.32 446.636 308.461C445.357 307.601 443.646 308.254 443.214 309.766L441.442 315.991L438.791 320.21L439.346 313.205C439.469 311.645 438.097 310.403 436.618 310.721C435.138 311.04 434.368 312.759 435.092 314.128L438.513 320.656L434.183 327.549L434.738 320.56C434.861 319 433.489 317.758 432.01 318.077C430.53 318.395 429.759 320.115 430.484 321.484L433.905 328.011L429.574 334.905L430.129 327.916C430.253 326.355 428.881 325.098 427.401 325.432C425.922 325.75 425.151 327.47 425.875 328.839L429.297 335.366L405.778 372.764Z" fill="#7AD2C1"/>
<path d="M366.261 359.533C377.559 383.048 392.817 399.398 401.833 398.268C402.573 398.173 403.266 397.966 403.913 397.631C412.483 393.237 409.524 369.054 397.286 343.613C392.046 332.707 385.958 323.362 380.04 316.564C372.133 307.505 364.535 303 359.634 305.515C351.065 309.909 354.039 334.092 366.261 359.533Z" fill="#7AD2C1"/>
<path d="M380.41 340.954C382.922 370.757 392.154 394.797 401.817 398.268C402.557 398.173 403.251 397.966 403.898 397.631C412.467 393.237 409.508 369.054 397.271 343.613C392.03 332.707 385.943 323.362 380.024 316.564C379.593 324.063 379.685 332.325 380.41 340.954Z" fill="#FFC833"/>
<path d="M359.633 305.516L401.816 398.269" stroke="#FFC833" stroke-width="0.925524" stroke-miterlimit="10"/>
<path d="M360.435 374.292L366.4 376.362L370.376 379.243L363.625 378.415C362.115 378.224 360.867 379.593 361.113 381.138C361.375 382.682 362.994 383.542 364.365 382.841L370.808 379.546L377.327 384.274L370.576 383.446C369.066 383.255 367.818 384.624 368.064 386.169C368.326 387.713 369.944 388.573 371.316 387.872L377.758 384.577L384.262 389.305L377.512 388.477C376.001 388.286 374.753 389.655 375.015 391.2C375.277 392.744 376.895 393.604 378.267 392.903L384.709 389.607L396.623 398.252H397.964L385.125 388.939L385.927 381.663C386.096 380.103 384.771 378.813 383.276 379.084C381.781 379.355 380.964 381.042 381.642 382.443L384.617 388.573L378.19 383.908L378.991 376.632C379.161 375.072 377.835 373.782 376.341 374.053C374.846 374.324 374.029 376.011 374.707 377.412L377.666 383.526L371.239 378.861L372.04 371.585C372.21 370.025 370.885 368.736 369.39 369.006C367.895 369.277 367.078 370.965 367.756 372.366L370.73 378.495L366.862 375.693L362.963 370.598C362.023 369.372 360.188 369.42 359.325 370.71C358.416 371.999 358.986 373.798 360.435 374.292Z" fill="#FFC833"/>
<path d="M408.784 397.026C409.554 397.297 410.371 397.488 411.203 397.599C420.913 398.905 434.322 389.544 442.429 375.327C451.229 359.884 450.427 344.568 440.641 341.097C437.466 339.967 433.721 340.238 429.837 341.639C421.73 344.552 412.945 352.353 406.996 362.781C398.211 378.24 399.012 393.556 408.784 397.026Z" fill="white" stroke="#FFC833" stroke-width="0.925524" stroke-miterlimit="10"/>
<path d="M408.783 397.026C409.554 397.297 410.371 397.488 411.203 397.599C420.173 393.396 427.972 375.597 429.621 353.977C429.944 349.71 430.006 345.571 429.836 341.639C421.73 344.552 412.945 352.353 406.996 362.781C398.211 378.24 399.012 393.556 408.783 397.026Z" fill="#FFC833"/>
<path d="M444.355 343.343L411.219 397.6" stroke="#FFC833" stroke-width="0.925524" stroke-miterlimit="10"/>
<path d="M404.837 398.905C394.112 398.905 385.418 372.183 385.418 339.219C385.418 306.256 394.112 279.533 404.837 279.533C415.562 279.533 424.257 306.256 424.257 339.219C424.257 372.183 415.562 398.905 404.837 398.905Z" fill="white" stroke="#FFC833" stroke-width="0.925524" stroke-miterlimit="10"/>
<path d="M404.838 279.517V398.905" stroke="#FFC833" stroke-width="0.925524" stroke-miterlimit="10"/>
<path d="M392.462 293.83L404.838 310.96L415.333 289.5" stroke="#FFC833" stroke-width="0.925524" stroke-miterlimit="10" stroke-linecap="round"/>
<path d="M388.44 308.349L404.961 331.816L419.819 302.124" stroke="#FFC833" stroke-width="0.925524" stroke-miterlimit="10" stroke-linecap="round"/>
<path d="M385.865 325.097L405.115 352.512L422.701 317.487" stroke="#FFC833" stroke-width="0.925524" stroke-miterlimit="10" stroke-linecap="round"/>
<path d="M384.664 347.45L405.023 376.871L424.211 339.267" stroke="#FFC833" stroke-width="0.925524" stroke-miterlimit="10" stroke-linecap="round"/>
<path d="M376.048 417.485H433.674C438.113 417.485 441.719 413.759 441.719 409.174V406.579C441.719 401.994 438.113 398.269 433.674 398.269H376.048C371.609 398.269 368.003 401.994 368.003 406.579V409.174C368.003 413.775 371.609 417.485 376.048 417.485Z" fill="white" stroke="#5D8DE9" stroke-width="0.925524" stroke-miterlimit="10"/>
<path d="M36.7933 210.629C36.7933 213.001 38.6274 214.928 40.8776 214.928H103.652C105.917 214.928 107.736 213.001 107.736 210.629C107.736 208.257 105.902 206.331 103.652 206.331H40.8776C38.6274 206.331 36.7933 208.257 36.7933 210.629Z" fill="#FDCDC1"/>
<path d="M63.2873 165.86H88.9795V184.328H39.3521C42.4962 173.375 52.2367 165.86 63.2873 165.86Z" fill="white" stroke="#FFC833" stroke-width="0.925524" stroke-miterlimit="10"/>
<path d="M84.3558 165.86V184.328L94.9902 184.344V165.86H84.3558Z" fill="#FFC833" stroke="#FFC833" stroke-width="0.925524" stroke-miterlimit="10"/>
<path d="M0.00495165 183.962L39.3524 184.328C39.3524 184.328 29.504 170.541 2.47091 174.187C2.47091 174.187 23.6165 169.633 45.0703 174.187" stroke="#FFC833" stroke-width="0.925524" stroke-miterlimit="10"/>
<path d="M39.3521 184.328C39.3521 184.328 22.1058 174.537 1.08346 179.282" stroke="#FFC833" stroke-width="0.925524" stroke-miterlimit="10"/>
<path d="M34.9594 199.437C34.9594 201.172 34.6973 202.748 34.2812 203.91H53.1612C54.1322 203.91 54.9336 203.035 54.9336 201.968V196.921C54.9336 195.839 54.1476 194.979 53.1612 194.979H34.2812C34.6973 196.125 34.9594 197.701 34.9594 199.437Z" fill="#FFC833"/>
<path d="M54.918 196.922V201.968C54.918 203.051 54.0704 203.911 53.0378 203.911H32.7552V204.277C32.7552 205.168 33.4488 205.885 34.3119 205.885H105.254C106.117 205.885 106.811 205.168 106.811 204.277V194.597C106.811 193.706 106.117 192.989 105.254 192.989H34.3119C33.4488 192.989 32.7552 193.706 32.7552 194.597V194.963H53.0378C54.0704 194.979 54.918 195.839 54.918 196.922Z" fill="white"/>
<path d="M54.918 196.922V201.968C54.918 203.051 54.0704 203.911 53.0378 203.911H32.7552V204.277C32.7552 205.168 33.4488 205.885 34.3119 205.885H105.254C106.117 205.885 106.811 205.168 106.811 204.277V194.597C106.811 193.706 106.117 192.989 105.254 192.989H34.3119C33.4488 192.989 32.7552 193.706 32.7552 194.597V194.963H53.0378C54.0704 194.979 54.918 195.839 54.918 196.922Z" stroke="#FFC833" stroke-width="0.925524" stroke-miterlimit="10"/>
<path d="M81.3505 218.382C82.0903 219.098 82.5527 220.404 82.5527 221.503C82.5527 223.684 80.7032 225.928 78.4222 225.928H21.5819C21.5819 226.947 22.3833 227.791 23.3851 227.791H91.985C93.819 227.791 95.4836 227.075 96.6857 225.928C97.8879 224.782 98.6431 223.19 98.6431 221.423C98.6431 217.904 95.6685 215.055 91.985 215.055H23.3851C22.3987 215.055 21.5819 215.883 21.5819 216.917V217.252H78.4222C79.5781 217.236 80.6108 217.682 81.3505 218.382Z" fill="#FFC833"/>
<path d="M25.6967 217.236V225.769H21.597V226.486H78.6223C79.2542 226.486 79.8707 226.358 80.4255 226.12C81.0266 225.865 81.5814 225.499 82.0284 225.021C82.9069 224.114 83.4463 222.872 83.4463 221.503C83.4463 218.748 81.2886 216.52 78.6223 216.52H21.597V217.236H25.6967Z" fill="#FDCDC1"/>
<path d="M24.1095 217.236V225.769H78.4222C80.7033 225.769 82.5527 223.859 82.5527 221.503C82.5527 220.324 82.0904 219.258 81.3506 218.478C80.6108 217.713 79.5781 217.236 78.4376 217.236H24.1095Z" fill="white"/>
<path d="M24.1094 217.236V225.769" stroke="#FDCDC1" stroke-width="0.77127" stroke-miterlimit="10"/>
<path d="M70.8547 223.286V230.402H75.6171V224.193C75.6171 222.713 76.773 221.503 78.2217 221.503H80.3486V220.595H73.4594C72.0106 220.595 70.8547 221.805 70.8547 223.286Z" fill="#FDCDC1"/>
<path d="M21.366 184.726H102.342C104.438 184.726 106.133 186.477 106.133 188.643C106.118 190.792 104.438 192.543 102.342 192.543H21.366C19.2699 192.543 17.5746 190.792 17.5746 188.627C17.59 186.477 19.2854 184.726 21.366 184.726Z" fill="#5D8DE9"/>
<path d="M39.7373 192.559H40.5542C40.4617 192.814 40.2305 193.451 39.7219 193.451C39.4137 193.451 37.9033 193.212 37.9033 188.643C37.9033 187.019 38.0882 185.777 38.4581 184.933C38.9051 183.93 39.4908 183.819 39.7065 183.819C40.2305 183.819 40.4617 184.472 40.5542 184.726H39.7373C39.7065 184.663 39.6757 184.631 39.6603 184.615C39.3829 184.694 38.6431 185.491 38.6431 188.643C38.6431 191.795 39.3829 192.575 39.6603 192.671C39.6911 192.639 39.7219 192.607 39.7373 192.559Z" fill="#7AD2C1"/>
<path d="M33.0484 192.559H33.8652C33.7728 192.814 33.5416 193.451 33.033 193.451C32.7247 193.451 31.2143 193.212 31.2143 188.643C31.2143 187.019 31.3993 185.777 31.7692 184.933C32.2161 183.93 32.8018 183.819 33.0176 183.819C33.5416 183.819 33.7728 184.472 33.8652 184.726H33.0484C33.0176 184.663 32.9867 184.631 32.9713 184.615C32.6939 184.694 31.9541 185.491 31.9541 188.643C31.9541 191.795 32.6939 192.575 32.9713 192.671C32.9867 192.639 33.0176 192.607 33.0484 192.559Z" fill="#7AD2C1"/>
<path d="M26.344 192.559H27.1608C27.0684 192.814 26.8372 193.451 26.3286 193.451C25.8971 193.451 24.5099 193.101 24.5099 188.643C24.5099 184.185 25.8971 183.835 26.3286 183.835C26.8526 183.835 27.0838 184.488 27.1763 184.742H26.3594C26.3286 184.679 26.2978 184.647 26.2824 184.631C25.9741 184.711 25.2651 185.538 25.2651 188.659C25.2651 190.569 25.5272 191.556 25.7584 192.066C25.9433 192.48 26.1436 192.655 26.2824 192.687C26.2978 192.639 26.3132 192.607 26.344 192.559Z" fill="#7AD2C1"/>
<path d="M59.8504 192.559H60.6672C60.5748 192.814 60.3435 193.451 59.8349 193.451C59.5267 193.451 58.0163 193.212 58.0163 188.643C58.0163 184.074 59.4034 183.835 59.8349 183.835C60.359 183.835 60.5901 184.488 60.6826 184.742H59.8658C59.8349 184.679 59.8041 184.647 59.7887 184.631C59.4805 184.711 58.7715 185.538 58.7715 188.659C58.7715 191.779 59.5113 192.591 59.7887 192.687C59.7887 192.639 59.8195 192.607 59.8504 192.559Z" fill="#7AD2C1"/>
<path d="M53.1458 192.559H53.9626C53.8702 192.814 53.639 193.451 53.1304 193.451C52.8375 193.451 52.2981 193.324 51.882 192.432C51.5121 191.62 51.3117 190.346 51.3117 188.643C51.3117 186.939 51.4967 185.666 51.882 184.854C52.2981 183.962 52.8375 183.835 53.1304 183.835C53.6544 183.835 53.8856 184.488 53.978 184.742H53.1612C53.1303 184.679 53.0995 184.647 53.0841 184.631C52.8992 184.663 52.7142 184.87 52.5601 185.204C52.3443 185.682 52.0669 186.669 52.0669 188.659C52.0669 190.649 52.3289 191.62 52.5601 192.114C52.7142 192.448 52.9146 192.655 53.0841 192.687C53.0995 192.639 53.115 192.607 53.1458 192.559Z" fill="#7AD2C1"/>
<path d="M46.4417 192.559H47.2585C47.1661 192.814 46.9349 193.451 46.4263 193.451C45.9947 193.451 44.6076 193.101 44.6076 188.643C44.6076 184.185 46.118 183.835 46.4263 183.835C46.9503 183.835 47.1815 184.488 47.2739 184.742H46.4571C46.4262 184.679 46.3954 184.647 46.38 184.631C46.1026 184.711 45.3628 185.507 45.3628 188.659C45.3628 191.811 46.0718 192.607 46.38 192.687C46.3954 192.639 46.4109 192.607 46.4417 192.559Z" fill="#7AD2C1"/>
<path d="M79.9477 192.56H80.7646C80.6721 192.814 80.441 193.451 79.9323 193.451C79.7012 193.451 79.1155 193.34 78.6839 192.337C78.314 191.509 78.1291 190.251 78.1291 188.627C78.1291 187.131 78.3295 185.873 78.6839 185.013C79.0076 184.249 79.47 183.803 79.9477 183.803C80.4718 183.803 80.7029 184.456 80.7954 184.711H79.9786C79.9477 184.663 79.9323 184.615 79.9169 184.599C79.8244 184.647 79.6087 184.822 79.3929 185.332C79.1617 185.857 78.8997 186.86 78.8997 188.611C78.8997 191.763 79.6395 192.544 79.9169 192.639C79.9015 192.639 79.9169 192.607 79.9477 192.56Z" fill="#7AD2C1"/>
<path d="M73.2431 192.559H74.06C73.9675 192.814 73.7364 193.451 73.2278 193.451C72.9966 193.451 72.4109 193.339 71.9794 192.336C71.6095 191.508 71.4245 190.251 71.4245 188.627C71.4245 184.153 72.8116 183.819 73.2431 183.819C73.7672 183.819 73.9983 184.472 74.0908 184.726H73.274C73.2431 184.663 73.2123 184.631 73.1969 184.615C72.8887 184.694 72.1797 185.522 72.1797 188.643C72.1797 191.763 72.9195 192.575 73.1969 192.671C73.1969 192.639 73.2123 192.607 73.2431 192.559Z" fill="#7AD2C1"/>
<path d="M66.5393 192.559H67.3562C67.2637 192.814 67.0325 193.451 66.5239 193.451C66.0924 193.451 64.7053 193.101 64.7053 188.643C64.7053 186.939 64.8902 185.666 65.2755 184.854C65.6916 183.962 66.2311 183.835 66.5239 183.835C67.0479 183.835 67.2791 184.488 67.3716 184.742H66.5547C66.5239 184.679 66.4931 184.647 66.4777 184.631C66.2927 184.663 66.1077 184.87 65.9536 185.204C65.7379 185.682 65.4604 186.669 65.4604 188.659C65.4604 191.779 66.1694 192.607 66.4777 192.687C66.4931 192.639 66.5239 192.607 66.5393 192.559Z" fill="#7AD2C1"/>
<path d="M100.045 192.559H100.862C100.77 192.814 100.538 193.451 100.03 193.451C99.552 193.451 99.105 193.005 98.766 192.241C98.3961 191.381 98.2111 190.139 98.2111 188.627C98.2111 186.86 98.5194 185.745 98.766 185.124C99.105 184.296 99.5674 183.819 100.03 183.819C100.554 183.819 100.785 184.472 100.877 184.726H100.061C100.03 184.679 100.014 184.647 99.999 184.615C99.8911 184.679 99.6599 184.901 99.4441 185.506C99.2283 186.064 98.9817 187.051 98.9817 188.627C98.9817 190.394 99.2437 191.381 99.4749 191.922C99.6907 192.432 99.9065 192.607 99.999 192.655C99.999 192.639 100.03 192.607 100.045 192.559Z" fill="#7AD2C1"/>
<path d="M93.3567 192.559H94.1735C94.0811 192.814 93.8499 193.451 93.3413 193.451C92.8635 193.451 92.4165 193.005 92.0775 192.241C91.7076 191.381 91.5226 190.139 91.5226 188.627C91.5226 185.506 92.4628 183.819 93.3413 183.819C93.8653 183.819 94.0965 184.472 94.189 184.726H93.3721C93.3413 184.679 93.3258 184.647 93.3104 184.615C93.2026 184.679 92.9868 184.901 92.7556 185.475C92.5398 186.016 92.2933 187.019 92.2933 188.627C92.2933 190.394 92.5553 191.381 92.7864 191.922C93.0022 192.432 93.218 192.607 93.3104 192.655C93.3104 192.639 93.3259 192.607 93.3567 192.559Z" fill="#7AD2C1"/>
<path d="M86.6521 192.559H87.4689C87.3765 192.814 87.1453 193.451 86.6367 193.451C86.4055 193.451 85.8352 193.339 85.3729 192.273C85.003 191.413 84.8181 190.187 84.8181 188.643C84.8181 187.098 85.0184 185.889 85.3729 185.029C85.6965 184.265 86.1589 183.819 86.6367 183.819C87.1607 183.819 87.3919 184.472 87.4844 184.726H86.6675C86.6367 184.679 86.6213 184.631 86.6058 184.615C86.5134 184.663 86.2976 184.838 86.0818 185.347C85.8507 185.873 85.5887 186.876 85.5887 188.627C85.5887 190.378 85.8507 191.413 86.0818 191.938C86.2976 192.432 86.5134 192.607 86.6058 192.639C86.6058 192.639 86.6213 192.607 86.6521 192.559Z" fill="#7AD2C1"/>
<path d="M49.971 72.8209H104.006C107.135 72.8209 109.663 70.21 109.663 66.9781V11.1607C109.663 7.92884 107.135 5.31787 104.006 5.31787H49.971C46.8423 5.31787 44.3147 7.92884 44.3147 11.1607V66.9781C44.3147 70.21 46.8577 72.8209 49.971 72.8209Z" fill="#FFC833"/>
<path d="M53.9169 69.0796H109.016C112.144 69.0796 114.672 66.4686 114.672 63.2368V6.32086C114.672 3.089 112.144 0.478027 109.016 0.478027H53.9169C50.7882 0.478027 48.2606 3.089 48.2606 6.32086V63.2368C48.2606 66.4686 50.7882 69.0796 53.9169 69.0796Z" fill="white" stroke="#FFC833" stroke-width="0.925524" stroke-miterlimit="10"/>
<path d="M81.4585 61.0397C67.4138 61.0397 56.0283 49.2787 56.0283 34.7708C56.0283 20.2629 67.4138 8.50195 81.4585 8.50195C95.5032 8.50195 106.889 20.2629 106.889 34.7708C106.889 49.2787 95.5032 61.0397 81.4585 61.0397Z" stroke="#FFC833" stroke-width="0.925524" stroke-miterlimit="10"/>
<path d="M68.5845 23.4033L82.887 34.6751L79.373 23.5466" stroke="#FFC833" stroke-width="0.925524" stroke-miterlimit="10" stroke-linecap="round"/>
<path d="M126.74 237.773H170.31L188.604 215.071H146.082L126.74 237.773Z" fill="#FFC833"/>
<path d="M103.144 238.952V252.962L137.667 253.105C142.09 253.121 145.681 249.428 145.681 244.859V240.512C145.681 237.615 146.714 234.829 148.563 232.679L159.953 219.465H117.431L106.55 230.562C104.361 232.775 103.144 235.784 103.144 238.952Z" fill="white" stroke="#5D8DE9" stroke-width="0.925524" stroke-miterlimit="10"/>
<path d="M87.6086 248.026C89.0727 251.051 92.0935 253.121 95.5921 253.121H138.13C134.647 253.121 131.626 251.051 130.146 248.026H87.6086Z" fill="white" stroke="#5D8DE9" stroke-width="0.925524" stroke-miterlimit="10"/>
<path d="M113.979 160.766L139.933 113.673C146.129 102.417 157.703 95.4758 170.233 95.4758H267.438L264.032 87.8817C264.31 88.5026 265.774 88.6618 268.009 88.3434C271.43 87.8658 276.64 86.3215 282.188 83.7742C285.363 82.3255 288.245 80.813 290.634 79.412C295.15 76.7533 297.878 74.4289 297.431 73.394L347.058 157.47C357.954 173.884 346.58 196.189 327.315 196.189C324.726 196.189 322.167 195.759 319.732 194.915C317.297 194.072 315.001 192.83 312.935 191.222L274.821 161.626C272.524 159.843 269.242 161.228 268.779 164.141L263.801 196.189H133.938C116.322 196.205 105.271 176.559 113.979 160.766ZM171.744 164.444L167.583 154.668C166.874 152.997 164.593 152.965 163.853 154.621L159.337 164.46H171.744V164.444Z" fill="#FDCDC1"/>
<path d="M251.964 95.4438C251.964 87.2129 235.519 77.0397 215.576 74.4446C185.661 70.5759 179.188 87.2129 179.188 95.4438" stroke="#FDCDC1" stroke-width="0.925524" stroke-miterlimit="10"/>
<path d="M182.64 95.5867C182.64 102.958 215.576 118.051 215.576 118.051C215.576 118.051 248.512 102.958 248.512 95.5867C248.512 88.2155 232.853 79.6821 214.806 77.4054C188.836 74.1258 182.64 88.1995 182.64 95.5867Z" fill="#FDCDC1"/>
<path d="M182.64 95.5867C182.64 102.958 215.576 118.051 215.576 118.051C215.576 118.051 248.512 102.958 248.512 95.5867V95.4912H182.64V95.5867Z" fill="white"/>
<path d="M179.203 95.4277C179.203 103.563 215.576 122.063 215.576 122.063C215.576 122.063 251.949 103.579 251.949 95.4277" stroke="white" stroke-width="0.925524" stroke-miterlimit="10"/>
<path d="M187.51 195.838C185.476 195.838 183.827 188.881 183.827 180.316C183.827 171.751 185.476 164.793 187.51 164.793" stroke="white" stroke-width="0.77127" stroke-miterlimit="10" stroke-linecap="round"/>
<path d="M264.787 91.002L293.315 149.924" stroke="white" stroke-width="0.77127" stroke-miterlimit="10"/>
<path d="M270.983 148.57L266.267 180.634" stroke="white" stroke-width="0.77127" stroke-miterlimit="10" stroke-linecap="round"/>
<path d="M217.117 125.836H214.034" stroke="white" stroke-width="0.77127" stroke-miterlimit="10" stroke-linecap="round"/>
<path d="M217.117 129.625H214.035" stroke="white" stroke-width="0.77127" stroke-miterlimit="10" stroke-linecap="round"/>
<path d="M217.117 133.398H214.035" stroke="white" stroke-width="0.77127" stroke-miterlimit="10" stroke-linecap="round"/>
<path d="M217.117 137.171H214.035" stroke="white" stroke-width="0.77127" stroke-miterlimit="10" stroke-linecap="round"/>
<path d="M217.117 140.944H214.035" stroke="white" stroke-width="0.77127" stroke-miterlimit="10" stroke-linecap="round"/>
<path d="M217.117 144.733H214.035" stroke="white" stroke-width="0.77127" stroke-miterlimit="10" stroke-linecap="round"/>
<path d="M217.117 144.908H214.035" stroke="white" stroke-width="0.77127" stroke-miterlimit="10" stroke-linecap="round"/>
<path d="M217.117 148.682H214.035" stroke="white" stroke-width="0.77127" stroke-miterlimit="10" stroke-linecap="round"/>
<path d="M217.117 152.455H214.035" stroke="white" stroke-width="0.77127" stroke-miterlimit="10" stroke-linecap="round"/>
<path d="M217.117 156.053H214.035" stroke="white" stroke-width="0.77127" stroke-miterlimit="10" stroke-linecap="round"/>
<path d="M217.117 159.842H214.035" stroke="white" stroke-width="0.77127" stroke-miterlimit="10" stroke-linecap="round"/>
<path d="M217.117 163.615H214.035" stroke="white" stroke-width="0.77127" stroke-miterlimit="10" stroke-linecap="round"/>
<path d="M217.117 167.388H214.035" stroke="white" stroke-width="0.77127" stroke-miterlimit="10" stroke-linecap="round"/>
<path d="M217.117 171.162H214.035" stroke="white" stroke-width="0.77127" stroke-miterlimit="10" stroke-linecap="round"/>
<path d="M217.117 174.951H214.035" stroke="white" stroke-width="0.77127" stroke-miterlimit="10" stroke-linecap="round"/>
<path d="M217.117 178.724H214.035" stroke="white" stroke-width="0.77127" stroke-miterlimit="10" stroke-linecap="round"/>
<path d="M217.117 182.497H214.035" stroke="white" stroke-width="0.77127" stroke-miterlimit="10" stroke-linecap="round"/>
<path d="M217.117 186.27H214.035" stroke="white" stroke-width="0.77127" stroke-miterlimit="10" stroke-linecap="round"/>
<path d="M217.117 186.461H214.035" stroke="white" stroke-width="0.77127" stroke-miterlimit="10" stroke-linecap="round"/>
<path d="M217.117 190.234H214.035" stroke="white" stroke-width="0.77127" stroke-miterlimit="10" stroke-linecap="round"/>
<path d="M217.117 194.007H214.035" stroke="white" stroke-width="0.77127" stroke-miterlimit="10" stroke-linecap="round"/>
<path d="M217.441 120.694V180.635" stroke="white" stroke-width="0.77127" stroke-miterlimit="10"/>
<path d="M189.298 164.762H152.232" stroke="white" stroke-width="0.77127" stroke-miterlimit="10" stroke-linecap="round"/>
<path d="M292.437 227.409H174.086L185.214 196.316H279.614L292.437 227.409Z" fill="white" stroke="#5D8DE9" stroke-width="0.925524" stroke-miterlimit="10"/>
<path d="M292.437 227.409C292.437 223.015 281.155 215.07 262.83 213.988C243.21 212.842 232.93 225.578 233.223 227.409H292.437Z" fill="#5D8DE9"/>
<path d="M233.239 227.409C233.239 227.409 238.448 202.255 284.176 207.381L274.297 182.561C274.297 182.561 236.845 175.524 233.223 196.316L233.239 227.409Z" fill="white" stroke="#5D8DE9" stroke-width="0.925524" stroke-linejoin="round"/>
<path d="M174.78 225.451C177.508 221.55 188.019 217.474 203.678 216.551C222.296 215.453 232.499 224.591 233.239 227.075V196.316C233.239 196.316 219.953 180.65 185.214 196.316L174.78 225.451Z" fill="white" stroke="#5D8DE9" stroke-width="0.925524" stroke-linejoin="round"/>
<path d="M190.763 212.587C194.647 211.569 199.347 210.804 204.711 210.486C207.377 210.327 209.858 210.406 212.139 210.661C217.796 211.314 222.25 213.065 225.425 214.944" stroke="#5D8DE9" stroke-width="0.925524" stroke-linecap="round" stroke-linejoin="round"/>
<path d="M192.134 207.286C195.849 206.378 200.272 205.694 205.265 205.391C207.932 205.232 210.413 205.312 212.694 205.566C218.35 206.219 222.805 207.97 225.979 209.849" stroke="#5D8DE9" stroke-width="0.925524" stroke-linecap="round" stroke-linejoin="round"/>
<path d="M193.398 202C196.943 201.188 201.058 200.583 205.682 200.296C208.348 200.137 210.83 200.217 213.111 200.472C218.767 201.124 223.221 202.876 226.396 204.754" stroke="#5D8DE9" stroke-width="0.925524" stroke-linecap="round" stroke-linejoin="round"/>
<path d="M188.312 194.915L178.51 222.489" stroke="#5D8DE9" stroke-width="0.925524" stroke-miterlimit="10"/>
<path d="M174.071 227.409H233.239V227.075C232.499 224.592 222.296 215.453 203.678 216.552C188.019 217.475 177.508 221.551 174.78 225.451L174.071 227.409Z" fill="#5D8DE9"/>
<path d="M196.696 95.4757C196.696 95.4757 207.731 101.414 223.051 99.0259C226.858 98.4369 230.942 97.3224 235.165 95.4757V76.3073L215.314 63.5391L212.34 68.6496L196.696 95.4757Z" fill="#E57281"/>
<path d="M214.22 65.0511C213.033 67.3277 212.833 70.0342 213.696 72.4701L223.051 99.0255C226.858 98.4364 230.942 97.322 235.165 95.4752V76.3069L215.222 63.1406L214.22 65.0511Z" fill="#BD3F4F"/>
<path d="M215.93 56.4705C215.93 56.4705 213.603 35.0892 221.88 33.131C228.199 31.6344 231.343 36.5539 231.343 36.5539C231.343 36.5539 234.764 31.3956 240.066 33.8156C245.106 36.1081 244.751 43.2564 242.486 42.6833C240.22 42.1102 244.674 37.525 249.437 40.9161C254.708 44.6574 249.437 50.8346 249.437 50.8346C249.437 50.8346 253.336 48.8923 255.139 52.8565C257.374 57.776 244.613 68.379 244.613 68.379L215.93 56.4705Z" fill="#BD3F4F"/>
<path d="M228.537 46.1377L241.776 51.6303C244.967 52.9517 246.523 56.7249 245.244 60.0045L239.465 74.8902C237.338 80.3828 231.235 83.0574 225.933 80.8604L220.431 78.5838C215.113 76.3867 212.524 70.0822 214.651 64.6055L220.431 49.7198C221.71 46.4243 225.362 44.8163 228.537 46.1377Z" fill="#E57281"/>
<path d="M211.985 63.4911L214.651 64.6055L217.549 57.1547L214.883 56.0402C213.295 55.3875 211.507 56.1835 210.875 57.8074L210.274 59.3517C209.627 60.9756 210.398 62.8224 211.985 63.4911Z" fill="#E57281"/>
<path d="M242.332 75.4637L239.666 74.3493L242.363 67.4238L245.029 68.5383C246.617 69.191 247.372 71.0537 246.74 72.6776L246.339 73.6965C245.707 75.3204 243.92 76.1164 242.332 75.4637Z" fill="#BD3F4F"/>
<path d="M215.237 61.1031C215.731 59.8135 215.13 58.3647 213.881 57.8394" stroke="#BD3F4F" stroke-width="0.77127" stroke-miterlimit="10" stroke-linecap="round"/>
<path d="M221.396 53.6174C221.396 53.6174 224.114 51.7327 227.505 54.1208" stroke="#BD3F4F" stroke-width="0.77127" stroke-miterlimit="10" stroke-linecap="round"/>
<path d="M234.811 59.6537C234.811 59.6537 230.141 59.1602 228.446 67.2797" stroke="#BD3F4F" stroke-width="0.77127" stroke-miterlimit="10" stroke-linecap="round"/>
<path d="M229.993 71.8812C228.169 72.9691 224.137 74.0305 222.595 69.5728" stroke="#BD3F4F" stroke-width="0.77127" stroke-miterlimit="10" stroke-linecap="round"/>
<path d="M222.52 62.3753C222.191 62.2549 222.157 61.4787 222.444 60.6417C222.731 59.8046 223.231 59.2236 223.56 59.344C223.889 59.4644 223.923 60.2406 223.635 61.0777C223.348 61.9147 222.849 62.4957 222.52 62.3753Z" fill="#BD3F4F"/>
<path d="M235.232 67.8533C234.903 67.7329 234.869 66.9568 235.157 66.1197C235.444 65.2826 235.943 64.7016 236.272 64.822C236.601 64.9424 236.635 65.7186 236.348 66.5557C236.061 67.3928 235.561 67.9737 235.232 67.8533Z" fill="#BD3F4F"/>
<path d="M222.666 65.4491C220.206 65.4491 218.212 63.3892 218.212 60.8481C218.212 58.307 220.206 56.2471 222.666 56.2471C225.126 56.2471 227.12 58.307 227.12 60.8481C227.12 63.3892 225.126 65.4491 222.666 65.4491Z" stroke="#FFC833" stroke-width="0.77127" stroke-miterlimit="10" stroke-linecap="round"/>
<path d="M235.767 70.703C233.307 70.703 231.312 68.6431 231.312 66.102C231.312 63.5609 233.307 61.501 235.767 61.501C238.227 61.501 240.221 63.5609 240.221 66.102C240.221 68.6431 238.227 70.703 235.767 70.703Z" stroke="#FFC833" stroke-width="0.77127" stroke-miterlimit="10" stroke-linecap="round"/>
<path d="M231.605 64.4462L226.905 62.2173" stroke="#FFC833" stroke-width="0.77127" stroke-miterlimit="10" stroke-linecap="round"/>
<path d="M263.107 86.1297C263.369 86.7506 264.849 86.9098 267.084 86.5914C270.505 86.1138 275.715 84.5695 281.263 82.0222C284.438 80.5576 287.32 79.061 289.694 77.66C294.209 75.0013 296.937 72.6769 296.49 71.6421C296.043 70.6231 292.576 71.1167 287.675 72.7565C285.039 73.6321 282.003 74.8421 278.797 76.3227C273.31 78.8381 268.548 81.2899 265.743 83.1844C263.832 84.4581 262.83 85.4929 263.107 86.1297Z" fill="white" stroke="#FDCDC1" stroke-width="0.925524" stroke-miterlimit="10"/>
<path d="M236.953 53.8429L241.145 70.5754L244.921 60.8638C246.37 57.1384 244.629 52.8717 241.068 51.3115L236.953 53.8429Z" fill="#BD3F4F"/>
<path d="M236.798 53.5409L245.121 68.4425C246.077 70.1619 247.864 71.2286 249.791 71.2286H258.391C259.655 71.2286 260.78 72.0246 261.258 73.2187L265.727 83.2008L267.037 86.1143C270.813 85.5889 276.069 83.9013 281.093 81.5929C282.974 80.7332 284.808 79.8257 286.503 78.9182L284.237 74.0306L280.184 65.2902C278.242 60.5618 274.898 56.5817 270.628 53.9389L262.244 48.7329C261.134 48.0483 259.855 47.6821 258.561 47.6821H244.32C243.534 47.6821 242.763 47.8573 242.069 48.2075L237.785 50.309C236.598 50.8981 236.151 52.3787 236.798 53.5409Z" fill="#E57281"/>
<path d="M256.927 54.0181H246.755C246 54.0181 245.26 54.1932 244.582 54.5275L240.467 56.5654C239.342 57.1226 238.91 58.5554 239.527 59.6699" stroke="#BD3F4F" stroke-width="0.77127" stroke-miterlimit="10" stroke-linecap="round"/>
<path d="M259.455 58.5396H249.283C248.527 58.5396 247.788 58.7147 247.109 59.049L242.994 61.0868C241.869 61.6441 241.438 63.0769 242.054 64.1913" stroke="#BD3F4F" stroke-width="0.77127" stroke-miterlimit="10" stroke-linecap="round"/>
<path d="M262.429 64.4463H252.257C251.502 64.4463 250.762 64.6214 250.084 64.9557L245.969 66.9936C244.844 67.5508 244.412 68.9836 245.029 70.0981" stroke="#BD3F4F" stroke-width="0.77127" stroke-miterlimit="10" stroke-linecap="round"/>
<path d="M267.022 86.1141C270.798 85.5888 276.054 83.9012 281.078 81.5927C282.958 80.733 284.792 79.8255 286.488 78.9181L283.929 73.521C282.219 74.1897 280.539 74.9538 278.658 75.8295C273.172 78.3449 268.378 80.9718 265.573 82.8664L267.022 86.1141Z" fill="#BD3F4F"/>
<path d="M265.435 70.7983H258.222" stroke="#BD3F4F" stroke-width="0.77127" stroke-miterlimit="10" stroke-linecap="round"/>
<path d="M189.36 196.189C187.326 196.189 185.676 189.082 185.676 180.316C185.676 171.55 187.326 164.443 189.36 164.443C191.394 164.443 193.043 171.55 193.043 180.316C193.043 189.082 191.394 196.189 189.36 196.189Z" fill="white"/>
<path d="M185.676 180.316C185.676 183.038 185.831 185.601 186.123 187.846C187.079 190.362 189.036 192.352 191.502 193.291C192.504 193.673 193.598 193.896 194.739 193.896H208.718C210.475 193.896 211.908 195.377 211.908 197.191V197.637C211.908 200.296 214.651 202.015 216.932 200.774L223.498 197.223C224.669 196.587 225.409 195.329 225.409 193.96V188.658C225.409 186.668 224.5 184.805 222.974 183.611L212.956 175.826C211.261 174.505 209.196 173.804 207.084 173.804H186.016C185.784 175.794 185.676 177.991 185.676 180.316Z" fill="#E57281"/>
<path d="M210.428 178.931L219.629 186.079C221.032 187.178 221.864 188.897 221.864 190.712V195.584C221.864 196.842 221.186 198.004 220.107 198.577" stroke="#BD3F4F" stroke-width="0.77127" stroke-miterlimit="10" stroke-linecap="round"/>
<path d="M205.743 181.064L214.944 188.212C216.347 189.311 217.179 191.03 217.179 192.845V197.717C217.179 198.975 216.501 200.137 215.422 200.71" stroke="#BD3F4F" stroke-width="0.77127" stroke-miterlimit="10" stroke-linecap="round"/>
<path d="M185.676 180.316C185.676 183.038 185.83 185.601 186.123 187.846C187.079 190.362 189.036 192.352 191.502 193.291C192.442 190.409 193.059 185.681 193.059 180.316C193.059 177.991 192.935 175.794 192.735 173.804H186C185.784 175.794 185.676 177.991 185.676 180.316Z" fill="#BD3F4F"/>
<path d="M158.905 203.448C149.678 203.448 142.198 202.8 142.198 202C142.198 201.199 149.678 200.551 158.905 200.551C168.132 200.551 175.612 201.199 175.612 202C175.612 202.8 168.132 203.448 158.905 203.448Z" fill="#FFC833"/>
<path d="M145.003 203.099H151.908C158.319 203.099 163.498 197.733 163.498 191.126V180.953H133.397V191.11C133.397 197.733 138.591 203.099 145.003 203.099Z" fill="white" stroke="#FFC833" stroke-width="0.925524" stroke-miterlimit="10"/>
<path d="M129.19 189.662H133.413V181.908H129.19C127.387 181.908 125.907 183.421 125.907 185.299V186.286C125.907 188.149 127.387 189.662 129.19 189.662Z" stroke="#FFC833" stroke-width="0.925524" stroke-miterlimit="10"/>
<path d="M148.455 183.978C140.071 183.978 133.274 182.574 133.274 180.841C133.274 179.109 140.071 177.705 148.455 177.705C156.839 177.705 163.636 179.109 163.636 180.841C163.636 182.574 156.839 183.978 148.455 183.978Z" fill="#235CD8" stroke="white" stroke-width="0.77127" stroke-miterlimit="10"/>
<path d="M163.482 183.389C163.482 185.124 156.747 186.525 148.455 186.525C140.164 186.525 133.429 185.124 133.429 183.389" stroke="#FFC833" stroke-width="0.925524" stroke-miterlimit="10"/>
<path d="M163.482 186.716C163.482 188.452 156.747 189.853 148.455 189.853C140.164 189.853 133.429 188.452 133.429 186.716" stroke="#FFC833" stroke-width="0.925524" stroke-miterlimit="10"/>
<path d="M163.482 190.043C163.482 191.779 156.747 193.18 148.455 193.18C140.164 193.18 133.429 191.779 133.429 190.043" stroke="#FFC833" stroke-width="0.925524" stroke-miterlimit="10"/>
<path d="M163.251 193.371C163.251 195.106 156.624 196.507 148.455 196.507C140.287 196.507 133.659 195.106 133.659 193.371" stroke="#FFC833" stroke-width="0.925524" stroke-miterlimit="10"/>
<path d="M162.095 196.699C162.095 198.434 155.992 199.835 148.455 199.835C140.919 199.835 134.816 198.434 134.816 196.699" stroke="#FFC833" stroke-width="0.925524" stroke-miterlimit="10"/>
<path d="M149.056 175.27C150.536 174.219 155.144 164.205 149.442 160.113C145.065 156.961 144.217 165.128 146.236 164.444C149.75 163.25 151.892 147.265 142.722 148.252C138.684 148.682 139.131 154.621 142.722 154.78" stroke="white" stroke-width="0.77127" stroke-miterlimit="10" stroke-linecap="round"/>
<path d="M328.301 222.044H404.052C406.086 222.044 407.905 220.771 408.66 218.828L429.39 165.908C430.376 163.377 428.573 160.607 425.937 160.607H350.186C348.152 160.607 346.333 161.881 345.578 163.823L324.848 216.743C323.847 219.274 325.65 222.044 328.301 222.044Z" fill="white" stroke="#FFC833" stroke-width="0.925524" stroke-miterlimit="10"/>
<path d="M331.815 222.426H404.083C406.01 222.426 407.751 221.216 408.475 219.369L428.249 168.885C429.19 166.465 427.479 163.838 424.951 163.838H352.683C350.757 163.838 349.015 165.048 348.291 166.895L328.517 217.379C327.577 219.799 329.303 222.426 331.815 222.426Z" fill="#FFC833"/>
<path d="M376.187 199.469C378.314 199.469 380.317 198.609 381.828 197.049C383.061 195.775 383.739 194.088 383.739 192.304C383.739 190.521 383.061 188.818 381.828 187.56C380.826 186.525 379.485 185.952 378.067 185.952C376.649 185.952 375.308 186.525 374.306 187.56C372.596 189.327 372.596 192.193 374.306 193.96C375.724 195.425 378.021 195.425 379.439 193.96C379.685 193.705 379.685 193.307 379.439 193.053C379.192 192.798 378.807 192.798 378.56 193.053C377.62 194.024 376.11 194.024 375.17 193.053C373.937 191.779 373.937 189.725 375.17 188.452C375.94 187.656 376.973 187.21 378.067 187.21C379.161 187.21 380.194 187.656 380.965 188.452C381.966 189.486 382.506 190.84 382.506 192.304C382.506 193.769 381.951 195.122 380.965 196.157C379.685 197.479 378.005 198.195 376.202 198.195C374.399 198.195 372.704 197.479 371.44 196.157C371.193 195.902 370.808 195.902 370.561 196.157C370.315 196.412 370.315 196.81 370.561 197.065C372.056 198.609 374.06 199.469 376.187 199.469Z" fill="white"/>
<path d="M301.191 227.648H403.96C405.146 227.648 406.102 226.661 406.102 225.435V224.369C406.102 223.143 405.146 222.156 403.96 222.156H301.191C300.004 222.156 299.049 223.143 299.049 224.369V225.435C299.064 226.661 300.02 227.648 301.191 227.648Z" fill="white" stroke="#FFC833" stroke-width="0.925524" stroke-miterlimit="10"/>
</g>
<defs>
<clipPath id="clip0_1633_27743">
<rect width="449" height="418" fill="white" transform="matrix(-1 0 0 1 449 0)"/>
</clipPath>
</defs>
</svg>
